Topmarks-Book.ufo
<glyph name="quotedbl" format="1">
  <advance width="857"/>
  <unicode hex="0022"/>
  <outline>
    <contour>
      <point x="553" y="994" type="line"/>
      <point x="488" y="1560" type="line"/>
      <point x="678" y="1560" type="line"/>
      <point x="662" y="994" type="line" smooth="yes"/>
    </contour>
    <contour>
      <point x="244" y="994" type="line"/>
      <point x="179" y="1560" type="line"/>
      <point x="369" y="1560" type="line"/>
      <point x="353" y="994" type="line" smooth="yes"/>
    </contour>
  </outline>
</glyph>
<glyph name="numbersign" format="1">
  <advance width="1231"/>
  <unicode hex="0023"/>
  <outline>
    <contour>
      <point x="231" y="60" type="line"/>
      <point x="315" y="485" type="line"/>
      <point x="63" y="485" type="line"/>
      <point x="74" y="611" type="line"/>
      <point x="338" y="611" type="line"/>
      <point x="353" y="705"/>
      <point x="370" y="793"/>
      <point x="386" y="886" type="curve"/>
      <point x="128" y="886" type="line"/>
      <point x="141" y="1010" type="line"/>
      <point x="407" y="1010" type="line"/>
      <point x="483" y="1420" type="line"/>
      <point x="623" y="1420" type="line"/>
      <point x="549" y="1010" type="line"/>
      <point x="800" y="1010" type="line"/>
      <point x="873" y="1420" type="line"/>
      <point x="1016" y="1420" type="line"/>
      <point x="938" y="1010" type="line"/>
      <point x="1179" y="1010" type="line"/>
      <point x="1165" y="886" type="line"/>
      <point x="916" y="886" type="line"/>
      <point x="867" y="611" type="line"/>
      <point x="1116" y="611" type="line"/>
      <point x="1102" y="485" type="line"/>
      <point x="846" y="485" type="line"/>
      <point x="766" y="60" type="line"/>
      <point x="627" y="60" type="line"/>
      <point x="704" y="485" type="line"/>
      <point x="453" y="485" type="line"/>
      <point x="374" y="60" type="line"/>
    </contour>
    <contour>
      <point x="474" y="611" type="line"/>
      <point x="728" y="611" type="line"/>
      <point x="777" y="886" type="line"/>
      <point x="526" y="886" type="line"/>
    </contour>
  </outline>
</glyph>
<glyph name="ampersand" format="1">
  <advance width="1541"/>
  <unicode hex="0026"/>
  <outline>
    <contour>
      <point x="601" y="-24" type="curve" smooth="yes"/>
      <point x="312" y="-24"/>
      <point x="101" y="139"/>
      <point x="101" y="401" type="curve" smooth="yes"/>
      <point x="101" y="658"/>
      <point x="311" y="816"/>
      <point x="450" y="908" type="curve"/>
      <point x="369" y="998"/>
      <point x="260" y="1124"/>
      <point x="260" y="1273" type="curve" smooth="yes"/>
      <point x="260" y="1473"/>
      <point x="421" y="1586"/>
      <point x="601" y="1586" type="curve" smooth="yes"/>
      <point x="816" y="1586"/>
      <point x="960" y="1459"/>
      <point x="960" y="1273" type="curve" smooth="yes"/>
      <point x="960" y="1097"/>
      <point x="771" y="949"/>
      <point x="648" y="873" type="curve"/>
      <point x="1039" y="393" type="line"/>
      <point x="1120" y="519"/>
      <point x="1197" y="697"/>
      <point x="1197" y="869" type="curve"/>
      <point x="1354" y="869" type="line"/>
      <point x="1346" y="629"/>
      <point x="1246" y="430"/>
      <point x="1143" y="286" type="curve"/>
      <point x="1284" y="152"/>
      <point x="1320" y="122"/>
      <point x="1423" y="101" type="curve"/>
      <point x="1362" y="-26" type="line"/>
      <point x="1222" y="-4"/>
      <point x="1139" y="101"/>
      <point x="1058" y="187" type="curve"/>
      <point x="951" y="71"/>
      <point x="812" y="-24"/>
    </contour>
    <contour>
      <point x="598" y="119" type="curve" smooth="yes"/>
      <point x="770" y="119"/>
      <point x="868" y="195"/>
      <point x="955" y="290" type="curve"/>
      <point x="531" y="803" type="line"/>
      <point x="401" y="729"/>
      <point x="271" y="588"/>
      <point x="271" y="409" type="curve" smooth="yes"/>
      <point x="271" y="203"/>
      <point x="428" y="119"/>
    </contour>
    <contour>
      <point x="565" y="964" type="curve"/>
      <point x="665" y="1024"/>
      <point x="806" y="1148"/>
      <point x="806" y="1269" type="curve" smooth="yes"/>
      <point x="806" y="1379"/>
      <point x="737" y="1452"/>
      <point x="609" y="1452" type="curve" smooth="yes"/>
      <point x="509" y="1452"/>
      <point x="417" y="1380"/>
      <point x="417" y="1269" type="curve" smooth="yes"/>
      <point x="417" y="1140"/>
      <point x="492" y="1037"/>
    </contour>
  </outline>
</glyph>
<glyph name="quotesingle" format="1">
  <advance width="548"/>
  <unicode hex="0027"/>
  <outline>
    <contour>
      <point x="226" y="994" type="line"/>
      <point x="190" y="1456" type="line"/>
      <point x="356" y="1456" type="line"/>
      <point x="340" y="994" type="line"/>
    </contour>
  </outline>
</glyph>
<glyph name="parenleft" format="1">
  <advance width="600"/>
  <unicode hex="0028"/>
  <outline>
    <contour>
      <point x="391" y="-245" type="line"/>
      <point x="30" y="324"/>
      <point x="18" y="965"/>
      <point x="397" y="1560" type="curve"/>
      <point x="544" y="1560" type="line"/>
      <point x="189" y="1002"/>
      <point x="205" y="289"/>
      <point x="540" y="-245" type="curve"/>
    </contour>
  </outline>
</glyph>
<glyph name="parenright" format="1">
  <advance width="636"/>
  <unicode hex="0029"/>
  <outline>
    <contour>
      <point x="66" y="-214" type="line"/>
      <point x="401" y="320"/>
      <point x="417" y="993"/>
      <point x="62" y="1551" type="curve"/>
      <point x="209" y="1551" type="line"/>
      <point x="588" y="956"/>
      <point x="576" y="355"/>
      <point x="215" y="-214" type="curve"/>
    </contour>
  </outline>
</glyph>
<glyph name="plus" format="1">
  <advance width="1383"/>
  <unicode hex="002B"/>
  <outline>
    <contour>
      <point x="616" y="202" type="line"/>
      <point x="616" y="675" type="line"/>
      <point x="195" y="675" type="line"/>
      <point x="195" y="814" type="line"/>
      <point x="619" y="814" type="line"/>
      <point x="619" y="1282" type="line"/>
      <point x="767" y="1282" type="line"/>
      <point x="767" y="814" type="line"/>
      <point x="1188" y="814" type="line"/>
      <point x="1188" y="675" type="line"/>
      <point x="765" y="675" type="line"/>
      <point x="765" y="202" type="line"/>
    </contour>
  </outline>
</glyph>
<glyph name="comma" format="1">
  <advance width="575"/>
  <unicode hex="002C"/>
  <outline>
    <contour>
      <point x="143" y="-310" type="line"/>
      <point x="250" y="207" type="line"/>
      <point x="437" y="207" type="line"/>
      <point x="274" y="-310" type="line"/>
    </contour>
  </outline>
</glyph>
<glyph name="period" format="1">
  <advance width="550"/>
  <unicode hex="002E"/>
  <outline>
    <contour>
      <point x="261" y="-16" type="curve" smooth="yes"/>
      <point x="192" y="-16"/>
      <point x="154" y="33"/>
      <point x="154" y="90" type="curve" smooth="yes"/>
      <point x="154" y="156"/>
      <point x="208" y="195"/>
      <point x="262" y="195" type="curve" smooth="yes"/>
      <point x="331" y="195"/>
      <point x="369" y="146"/>
      <point x="369" y="89" type="curve" smooth="yes"/>
      <point x="369" y="23"/>
      <point x="315" y="-16"/>
    </contour>
  </outline>
</glyph>
<glyph name="zero" format="1">
  <advance width="1316"/>
  <unicode hex="0030"/>
  <outline>
    <contour>
      <point x="659" y="126" type="curve" smooth="yes"/>
      <point x="910" y="126"/>
      <point x="970" y="456"/>
      <point x="970" y="726" type="curve" smooth="yes"/>
      <point x="970" y="1012"/>
      <point x="931" y="1330"/>
      <point x="659" y="1330" type="curve" smooth="yes"/>
      <point x="404" y="1330"/>
      <point x="346" y="1000"/>
      <point x="346" y="726" type="curve" smooth="yes"/>
      <point x="346" y="439"/>
      <point x="386" y="126"/>
    </contour>
    <contour>
      <point x="654" y="-24" type="curve" smooth="yes"/>
      <point x="279" y="-24"/>
      <point x="162" y="335"/>
      <point x="162" y="726" type="curve" smooth="yes"/>
      <point x="162" y="1119"/>
      <point x="287" y="1480"/>
      <point x="659" y="1480" type="curve" smooth="yes"/>
      <point x="1051" y="1480"/>
      <point x="1154" y="1133"/>
      <point x="1154" y="726" type="curve" smooth="yes"/>
      <point x="1154" y="341"/>
      <point x="1020" y="-24"/>
    </contour>
  </outline>
</glyph>
<glyph name="one" format="1">
  <advance width="1258"/>
  <unicode hex="0031"/>
  <outline>
    <contour>
      <point x="668" y="0" type="line"/>
      <point x="840" y="0" type="line"/>
      <point x="840" y="1456" type="line"/>
      <point x="675" y="1456" type="line"/>
      <point x="607" y="1405"/>
      <point x="485" y="1330"/>
      <point x="369" y="1277" type="curve"/>
      <point x="410" y="1146" type="line"/>
      <point x="516" y="1190"/>
      <point x="602" y="1238"/>
      <point x="668" y="1288" type="curve"/>
    </contour>
  </outline>
</glyph>
<glyph name="two" format="1">
  <advance width="1316"/>
  <unicode hex="0032"/>
  <outline>
    <contour>
      <point x="624" y="1480" type="curve" smooth="yes"/>
      <point x="887" y="1480"/>
      <point x="1044" y="1321"/>
      <point x="1051" y="1062" type="curve" smooth="yes"/>
      <point x="1057" y="850"/>
      <point x="946" y="695"/>
      <point x="776" y="484" type="curve"/>
      <point x="502" y="138" type="line"/>
      <point x="1066" y="138" type="line"/>
      <point x="1066" y="0" type="line"/>
      <point x="286" y="0" type="line"/>
      <point x="286" y="128" type="line"/>
      <point x="666" y="604" type="line"/>
      <point x="813" y="786"/>
      <point x="888" y="930"/>
      <point x="880" y="1071" type="curve"/>
      <point x="873" y="1225"/>
      <point x="788" y="1330"/>
      <point x="627" y="1330" type="curve" smooth="yes"/>
      <point x="430" y="1330"/>
      <point x="327" y="1134"/>
      <point x="326" y="1135" type="curve" smooth="yes"/>
      <point x="228" y="1263" type="line"/>
      <point x="228" y="1263"/>
      <point x="366" y="1480"/>
    </contour>
  </outline>
</glyph>
<glyph name="three" format="1">
  <advance width="1316"/>
  <unicode hex="0033"/>
  <outline>
    <contour>
      <point x="624" y="-24" type="curve" smooth="yes"/>
      <point x="481" y="-24"/>
      <point x="333" y="16"/>
      <point x="218" y="85" type="curve"/>
      <point x="271" y="225" type="line"/>
      <point x="396" y="159"/>
      <point x="521" y="125"/>
      <point x="629" y="125" type="curve" smooth="yes"/>
      <point x="805" y="125"/>
      <point x="933" y="215"/>
      <point x="933" y="406" type="curve" smooth="yes"/>
      <point x="933" y="600"/>
      <point x="788" y="696"/>
      <point x="549" y="696" type="curve" smooth="yes"/>
      <point x="471" y="696" type="line"/>
      <point x="471" y="844" type="line"/>
      <point x="535" y="844" type="line" smooth="yes"/>
      <point x="761" y="844"/>
      <point x="884" y="906"/>
      <point x="884" y="1095" type="curve" smooth="yes"/>
      <point x="884" y="1111" type="line"/>
      <point x="879" y="1252"/>
      <point x="753" y="1330"/>
      <point x="604" y="1330" type="curve" smooth="yes"/>
      <point x="491" y="1330"/>
      <point x="363" y="1286"/>
      <point x="264" y="1186" type="curve"/>
      <point x="168" y="1295" type="line"/>
      <point x="271" y="1418"/>
      <point x="439" y="1481"/>
      <point x="601" y="1481" type="curve" smooth="yes"/>
      <point x="827" y="1481"/>
      <point x="1042" y="1358"/>
      <point x="1049" y="1109" type="curve"/>
      <point x="1049" y="1093" type="line" smooth="yes"/>
      <point x="1049" y="930"/>
      <point x="976" y="817"/>
      <point x="814" y="769" type="curve"/>
      <point x="1004" y="730"/>
      <point x="1103" y="593"/>
      <point x="1103" y="404" type="curve" smooth="yes"/>
      <point x="1103" y="98"/>
      <point x="873" y="-24"/>
    </contour>
  </outline>
</glyph>
<glyph name="four" format="1">
  <advance width="1316"/>
  <unicode hex="0034"/>
  <outline>
    <contour>
      <point x="929" y="868" type="line"/>
      <point x="929" y="509" type="line"/>
      <point x="1158" y="509" type="line"/>
      <point x="1158" y="370" type="line"/>
      <point x="930" y="370" type="line"/>
      <point x="930" y="0" type="line"/>
      <point x="758" y="0" type="line"/>
      <point x="758" y="370" type="line"/>
      <point x="161" y="370" type="line"/>
      <point x="161" y="499" type="line"/>
      <point x="596" y="1456" type="line"/>
      <point x="764" y="1456" type="line"/>
      <point x="362" y="509" type="line"/>
      <point x="758" y="509" type="line"/>
      <point x="758" y="868" type="line"/>
    </contour>
  </outline>
</glyph>
<glyph name="five" format="1">
  <advance width="1316"/>
  <unicode hex="0035"/>
  <outline>
    <contour>
      <point x="666" y="-24" type="curve" smooth="yes"/>
      <point x="505" y="-24"/>
      <point x="330" y="46"/>
      <point x="211" y="179" type="curve"/>
      <point x="302" y="295" type="line"/>
      <point x="410" y="171"/>
      <point x="545" y="123"/>
      <point x="664" y="123" type="curve" smooth="yes"/>
      <point x="866" y="123"/>
      <point x="975" y="267"/>
      <point x="975" y="468" type="curve" smooth="yes"/>
      <point x="975" y="633"/>
      <point x="889" y="772"/>
      <point x="713" y="772" type="curve" smooth="yes"/>
      <point x="589" y="772"/>
      <point x="491" y="718"/>
      <point x="450" y="656" type="curve"/>
      <point x="293" y="698" type="line"/>
      <point x="308" y="1456" type="line"/>
      <point x="1039" y="1456" type="line"/>
      <point x="1039" y="1306" type="line"/>
      <point x="461" y="1306" type="line"/>
      <point x="440" y="814" type="line"/>
      <point x="502" y="880"/>
      <point x="615" y="917"/>
      <point x="710" y="917" type="curve" smooth="yes"/>
      <point x="960" y="917"/>
      <point x="1135" y="738"/>
      <point x="1135" y="468" type="curve" smooth="yes"/>
      <point x="1135" y="196"/>
      <point x="974" y="-24"/>
    </contour>
  </outline>
</glyph>
<glyph name="seven" format="1">
  <advance width="1316"/>
  <unicode hex="0037"/>
  <outline>
    <contour>
      <point x="407" y="0" type="line"/>
      <point x="931" y="1311" type="line"/>
      <point x="209" y="1311" type="line"/>
      <point x="209" y="1456" type="line"/>
      <point x="1131" y="1456" type="line"/>
      <point x="1131" y="1365" type="line"/>
      <point x="593" y="0" type="line"/>
    </contour>
  </outline>
</glyph>
<glyph name="eight" format="1">
  <advance width="1274.14947325"/>
  <unicode hex="0038"/>
  <outline>
    <contour>
      <point x="637.058657867" y="1586.0" type="curve"/>
      <point x="863.058657867" y="1586.0"/>
      <point x="1075.05865787" y="1467.0"/>
      <point x="1075.05865787" y="1207.0" type="curve" smooth="yes"/>
      <point x="1075.05865787" y="1014.0"/>
      <point x="950.058657867" y="892.0"/>
      <point x="769.058657867" y="824.0" type="curve"/>
      <point x="942.058657867" y="771.0"/>
      <point x="1106.05865787" y="620"/>
      <point x="1110.05865787" y="407.0" type="curve" smooth="yes"/>
      <point x="1115.05865787" y="163"/>
      <point x="913.058657867" y="-24.0"/>
      <point x="637.058657867" y="-24.0" type="curve"/>
      <point x="361.058657867" y="-24.0"/>
      <point x="160.058657867" y="163"/>
      <point x="164.058657867" y="407.0" type="curve" smooth="yes"/>
      <point x="167.058657867" y="620"/>
      <point x="332.058657867" y="771"/>
      <point x="505.058657867" y="824" type="curve"/>
      <point x="324.058657867" y="892"/>
      <point x="199.058657867" y="1014.0"/>
      <point x="199.058657867" y="1207.0" type="curve" smooth="yes"/>
      <point x="199.058657867" y="1467.0"/>
      <point x="411.058657867" y="1586.0"/>
    </contour>
    <contour>
      <point x="637.058657867" y="112.0" type="curve"/>
      <point x="830.058657867" y="112.0"/>
      <point x="949.058657867" y="236.0"/>
      <point x="943.058657867" y="413.0" type="curve" smooth="yes"/>
      <point x="937.058657867" y="586.0"/>
      <point x="800.058657867" y="716"/>
      <point x="637.058657867" y="750" type="curve"/>
      <point x="474.058657867" y="716"/>
      <point x="337.058657867" y="586"/>
      <point x="331.058657867" y="413" type="curve" smooth="yes"/>
      <point x="325.058657867" y="236"/>
      <point x="444.058657867" y="112.0"/>
    </contour>
    <contour>
      <point x="637.058657867" y="1450.0" type="curve"/>
      <point x="476.058657867" y="1450.0"/>
      <point x="370.058657867" y="1374"/>
      <point x="359.058657867" y="1210" type="curve" smooth="yes"/>
      <point x="348.058657867" y="1049"/>
      <point x="447.058657867" y="947"/>
      <point x="637.058657867" y="888" type="curve"/>
      <point x="827.058657867" y="947"/>
      <point x="926.058657867" y="1049"/>
      <point x="915.058657867" y="1210" type="curve" smooth="yes"/>
      <point x="904.058657867" y="1374"/>
      <point x="798.058657867" y="1450.0"/>
    </contour>
  </outline>
</glyph>
<glyph name="colon" format="1">
  <advance width="550"/>
  <unicode hex="003A"/>
  <outline>
    <contour>
      <point x="169" y="-11" type="line"/>
      <point x="169" y="199" type="line"/>
      <point x="386" y="199" type="line"/>
      <point x="386" y="-11" type="line"/>
    </contour>
    <contour>
      <point x="169" y="841" type="line"/>
      <point x="169" y="1051" type="line"/>
      <point x="386" y="1051" type="line"/>
      <point x="386" y="841" type="line"/>
    </contour>
  </outline>
</glyph>
<glyph name="greater" format="1">
  <advance width="1447"/>
  <unicode hex="003E"/>
  <outline>
    <contour>
      <point x="225" y="58" type="line"/>
      <point x="225" y="212" type="line"/>
      <point x="993" y="555" type="line"/>
      <point x="230" y="926" type="line"/>
      <point x="230" y="1078" type="line"/>
      <point x="1214" y="594" type="line"/>
      <point x="1214" y="505" type="line"/>
    </contour>
  </outline>
</glyph>
<glyph name="question" format="1">
  <advance width="990"/>
  <unicode hex="003F"/>
  <outline>
    <contour>
      <point x="313" y="368" type="line"/>
      <point x="313" y="730"/>
      <point x="680" y="789"/>
      <point x="680" y="1125" type="curve" smooth="yes"/>
      <point x="680" y="1271"/>
      <point x="559" y="1328"/>
      <point x="425" y="1330" type="curve" smooth="yes"/>
      <point x="325" y="1332"/>
      <point x="216" y="1305"/>
      <point x="140" y="1262" type="curve"/>
      <point x="140" y="1413" type="line"/>
      <point x="220" y="1452"/>
      <point x="315" y="1483"/>
      <point x="421" y="1483" type="curve" smooth="yes"/>
      <point x="698" y="1483"/>
      <point x="849" y="1338"/>
      <point x="849" y="1133" type="curve" smooth="yes"/>
      <point x="849" y="760"/>
      <point x="438" y="678"/>
      <point x="438" y="368" type="curve"/>
    </contour>
    <contour>
      <point x="382" y="0" type="curve" smooth="yes"/>
      <point x="313" y="0"/>
      <point x="275" y="49"/>
      <point x="275" y="106" type="curve" smooth="yes"/>
      <point x="275" y="172"/>
      <point x="329" y="211"/>
      <point x="383" y="211" type="curve" smooth="yes"/>
      <point x="451" y="211"/>
      <point x="488" y="162"/>
      <point x="488" y="105" type="curve" smooth="yes"/>
      <point x="488" y="39"/>
      <point x="436" y="0"/>
    </contour>
  </outline>
</glyph>
<glyph name="A" format="1">
  <advance width="1397.83333333"/>
  <unicode hex="0041"/>
  <outline>
    <contour>
      <point x="40.4166666667" y="0" type="line"/>
      <point x="609.416666667" y="1560" type="line"/>
      <point x="787.416666667" y="1560" type="line"/>
      <point x="1357.41666667" y="0" type="line"/>
      <point x="1176.41666667" y="0" type="line"/>
      <point x="1008.41666667" y="479" type="line"/>
      <point x="383.416666667" y="479" type="line"/>
      <point x="216.416666667" y="0" type="line"/>
    </contour>
    <contour>
      <point x="435.416666667" y="615" type="line"/>
      <point x="956.416666667" y="615" type="line"/>
      <point x="794.416666667" y="1091" type="line"/>
      <point x="698.416666667" y="1385" type="line"/>
      <point x="596.416666667" y="1090" type="line"/>
    </contour>
  </outline>
</glyph>
<glyph name="C" format="1">
  <advance width="1400.57142857"/>
  <unicode hex="0043"/>
  <outline>
    <contour>
      <point x="305" y="783" type="curve" smooth="yes"/>
      <point x="305" y="223"/>
      <point x="731" y="-16"/>
      <point x="1194.0" y="239.0" type="curve"/>
      <point x="1262.0" y="100.0" type="line"/>
      <point x="732.0" y="-196.0"/>
      <point x="122" y="55"/>
      <point x="122" y="783" type="curve" smooth="yes"/>
      <point x="122" y="1511"/>
      <point x="732.0" y="1762.0"/>
      <point x="1262.0" y="1466.0" type="curve"/>
      <point x="1194.0" y="1327.0" type="line"/>
      <point x="732" y="1580"/>
      <point x="305" y="1355"/>
    </contour>
  </outline>
</glyph>
<glyph name="P" format="1">
  <advance width="1234.28571429"/>
  <unicode hex="0050"/>
  <outline>
    <contour>
      <point x="194.0" y="0.0" type="line"/>
      <point x="194.0" y="1560" type="line"/>
      <point x="593.0" y="1560" type="line" smooth="yes"/>
      <point x="1008.0" y="1560"/>
      <point x="1165.0" y="1420"/>
      <point x="1165.0" y="1124" type="curve" smooth="yes"/>
      <point x="1165.0" y="838"/>
      <point x="987.0" y="691"/>
      <point x="617.0" y="691" type="curve" smooth="yes"/>
      <point x="366.0" y="691" type="line"/>
      <point x="366.0" y="0.0" type="line"/>
    </contour>
    <contour>
      <point x="366.0" y="840" type="line"/>
      <point x="636.0" y="840" type="line" smooth="yes"/>
      <point x="877.0" y="840"/>
      <point x="981.0" y="936"/>
      <point x="981.0" y="1122" type="curve" smooth="yes"/>
      <point x="981.0" y="1326"/>
      <point x="895.0" y="1422"/>
      <point x="616.0" y="1422" type="curve" smooth="yes"/>
      <point x="366.0" y="1422" type="line"/>
    </contour>
  </outline>
</glyph>
<glyph name="V" format="1">
  <advance width="1388.85714286"/>
  <unicode hex="0056"/>
  <outline>
    <contour>
      <point x="609.428571429" y="0" type="line"/>
      <point x="55.4285714286" y="1560" type="line"/>
      <point x="243.428571429" y="1560" type="line"/>
      <point x="655.428571429" y="325" type="line"/>
      <point x="701.428571429" y="175" type="line"/>
      <point x="749.428571429" y="324" type="line"/>
      <point x="1149.42857143" y="1560" type="line"/>
      <point x="1333.42857143" y="1560" type="line"/>
      <point x="795.428571429" y="0" type="line"/>
    </contour>
  </outline>
</glyph>
<glyph name="W" format="1">
  <advance width="2120.79310345"/>
  <unicode hex="0057"/>
  <outline>
    <contour>
      <point x="469.896551724" y="0" type="line"/>
      <point x="66.8965517241" y="1560" type="line"/>
      <point x="249.896551724" y="1560" type="line"/>
      <point x="542.896551724" y="349" type="line"/>
      <point x="580.896551724" y="178" type="line"/>
      <point x="630.896551724" y="349" type="line"/>
      <point x="980.896551724" y="1560" type="line"/>
      <point x="1153.89655172" y="1560" type="line"/>
      <point x="1500.89655172" y="345" type="line"/>
      <point x="1546.89655172" y="179" type="line"/>
      <point x="1588.89655172" y="349" type="line"/>
      <point x="1876.89655172" y="1560" type="line"/>
      <point x="2053.89655172" y="1560" type="line"/>
      <point x="1650.89655172" y="0" type="line"/>
      <point x="1438.89655172" y="0" type="line"/>
      <point x="1061.89655172" y="1354" type="line"/>
      <point x="680.896551724" y="0" type="line"/>
    </contour>
  </outline>
</glyph>
<glyph name="X" format="1">
  <advance width="1279"/>
  <unicode hex="0058"/>
  <outline>
    <contour>
      <point x="1058" y="0" type="line"/>
      <point x="640" y="623" type="line"/>
      <point x="224" y="0" type="line"/>
      <point x="20" y="0" type="line"/>
      <point x="544" y="741" type="line"/>
      <point x="59" y="1456" type="line"/>
      <point x="265" y="1456" type="line"/>
      <point x="653" y="854" type="line"/>
      <point x="1053" y="1456" type="line"/>
      <point x="1249" y="1456" type="line"/>
      <point x="751" y="742" type="line"/>
      <point x="1259" y="0" type="line"/>
    </contour>
  </outline>
</glyph>
<glyph name="bracketleft" format="1">
  <advance width="638"/>
  <unicode hex="005B"/>
  <outline>
    <contour>
      <point x="201" y="-259" type="line"/>
      <point x="201" y="1451" type="line"/>
      <point x="557" y="1451" type="line"/>
      <point x="557" y="1329" type="line"/>
      <point x="364" y="1329" type="line"/>
      <point x="364" y="-137" type="line"/>
      <point x="558" y="-137" type="line"/>
      <point x="558" y="-259" type="line"/>
    </contour>
  </outline>
</glyph>
<glyph name="backslash" format="1">
  <advance width="954"/>
  <unicode hex="005C"/>
  <outline>
    <contour>
      <point x="712" y="0" type="line"/>
      <point x="83" y="1560" type="line"/>
      <point x="250" y="1560" type="line"/>
      <point x="875" y="0" type="line"/>
    </contour>
  </outline>
</glyph>
<glyph name="bracketright" format="1">
  <advance width="638"/>
  <unicode hex="005D"/>
  <outline>
    <contour>
      <point x="97" y="-259" type="line"/>
      <point x="97" y="-137" type="line"/>
      <point x="288" y="-137" type="line"/>
      <point x="288" y="1329" type="line"/>
      <point x="98" y="1329" type="line"/>
      <point x="88" y="1451" type="line"/>
      <point x="452" y="1451" type="line"/>
      <point x="452" y="-259" type="line"/>
    </contour>
  </outline>
</glyph>
<glyph name="asciicircum" format="1">
  <advance width="1443"/>
  <unicode hex="005E"/>
  <outline>
    <contour>
      <point x="194" y="550" type="line"/>
      <point x="666" y="1432" type="line"/>
      <point x="763" y="1432" type="line"/>
      <point x="1242" y="550" type="line"/>
      <point x="1087" y="550" type="line"/>
      <point x="713" y="1260" type="line"/>
      <point x="350" y="550" type="line"/>
    </contour>
  </outline>
</glyph>
<glyph name="a" format="1">
  <advance width="1205"/>
  <unicode hex="0061"/>
  <outline>
    <contour>
      <point x="513" y="-22" type="curve" smooth="yes"/>
      <point x="662" y="-22"/>
      <point x="799" y="48"/>
      <point x="865" y="161" type="curve"/>
      <point x="892" y="49"/>
      <point x="966" y="-14"/>
      <point x="1126" y="-14" type="curve"/>
      <point x="1155" y="121" type="line"/>
      <point x="1040" y="121"/>
      <point x="1010" y="175"/>
      <point x="1010" y="278" type="curve" smooth="yes"/>
      <point x="1010" y="966" type="line"/>
      <point x="930" y="1018"/>
      <point x="791" y="1052"/>
      <point x="664" y="1052" type="curve" smooth="yes"/>
      <point x="339" y="1052"/>
      <point x="112" y="804"/>
      <point x="112" y="438" type="curve" smooth="yes"/>
      <point x="112" y="162"/>
      <point x="278" y="-22"/>
    </contour>
    <contour>
      <point x="537" y="114" type="curve" smooth="yes"/>
      <point x="384" y="114"/>
      <point x="282" y="248"/>
      <point x="282" y="448" type="curve" smooth="yes"/>
      <point x="282" y="726"/>
      <point x="434" y="916"/>
      <point x="661" y="916" type="curve" smooth="yes"/>
      <point x="733" y="916"/>
      <point x="806" y="902"/>
      <point x="846" y="881" type="curve"/>
      <point x="846" y="453" type="line" smooth="yes"/>
      <point x="846" y="260"/>
      <point x="722" y="114"/>
    </contour>
  </outline>
</glyph>
<glyph name="b" format="1">
  <advance width="1177"/>
  <unicode hex="0062"/>
  <outline>
    <contour>
      <point x="559" y="-22" type="curve" smooth="yes"/>
      <point x="326" y="-22"/>
      <point x="158" y="71"/>
      <point x="158" y="71" type="curve"/>
      <point x="158" y="1560" type="line"/>
      <point x="323" y="1560" type="line"/>
      <point x="323" y="868" type="line"/>
      <point x="415" y="1002"/>
      <point x="531" y="1052"/>
      <point x="666" y="1052" type="curve" smooth="yes"/>
      <point x="889" y="1052"/>
      <point x="1067" y="865"/>
      <point x="1067" y="545" type="curve" smooth="yes"/>
      <point x="1067" y="215"/>
      <point x="863" y="-22"/>
    </contour>
    <contour>
      <point x="553" y="114" type="curve" smooth="yes"/>
      <point x="777" y="114"/>
      <point x="897" y="318"/>
      <point x="897" y="550" type="curve" smooth="yes"/>
      <point x="897" y="793"/>
      <point x="785" y="916"/>
      <point x="643" y="916" type="curve" smooth="yes"/>
      <point x="490" y="916"/>
      <point x="323" y="791"/>
      <point x="323" y="601" type="curve" smooth="yes"/>
      <point x="323" y="151" type="line"/>
      <point x="323" y="151"/>
      <point x="405" y="114"/>
    </contour>
  </outline>
</glyph>
<glyph name="d" format="1">
  <advance width="1225"/>
  <unicode hex="0064"/>
  <outline>
    <contour>
      <point x="281" y="463" type="curve" smooth="yes"/>
      <point x="281" y="233"/>
      <point x="392" y="114"/>
      <point x="535" y="114" type="curve" smooth="yes"/>
      <point x="724" y="114"/>
      <point x="850" y="258"/>
      <point x="850" y="497" type="curve" smooth="yes"/>
      <point x="850" y="880" type="line"/>
      <point x="780" y="905"/>
      <point x="717" y="916"/>
      <point x="659" y="916" type="curve" smooth="yes"/>
      <point x="418" y="916"/>
      <point x="281" y="718"/>
    </contour>
    <contour>
      <point x="869" y="161" type="curve"/>
      <point x="800" y="44"/>
      <point x="685" y="-22"/>
      <point x="522" y="-22" type="curve" smooth="yes"/>
      <point x="288" y="-22"/>
      <point x="110" y="149"/>
      <point x="110" y="464" type="curve" smooth="yes"/>
      <point x="110" y="859"/>
      <point x="373" y="1052"/>
      <point x="649" y="1052" type="curve" smooth="yes"/>
      <point x="714" y="1052"/>
      <point x="784" y="1037"/>
      <point x="849" y="1014" type="curve"/>
      <point x="849" y="1560" type="line"/>
      <point x="1014" y="1560" type="line"/>
      <point x="1014" y="314" type="line" smooth="yes"/>
      <point x="1014" y="189"/>
      <point x="1028" y="121"/>
      <point x="1159" y="121" type="curve"/>
      <point x="1130" y="-14" type="line"/>
      <point x="980" y="-14"/>
      <point x="896" y="44"/>
    </contour>
  </outline>
</glyph>
<glyph name="e" format="1">
  <advance width="1082"/>
  <unicode hex="0065"/>
  <outline>
    <contour>
      <point x="618" y="-22" type="curve" smooth="yes"/>
      <point x="744" y="-22"/>
      <point x="880" y="22"/>
      <point x="1000" y="119" type="curve"/>
      <point x="928" y="233" type="line"/>
      <point x="843" y="152"/>
      <point x="738" y="114"/>
      <point x="638" y="114" type="curve" smooth="yes"/>
      <point x="488" y="114"/>
      <point x="348" y="205"/>
      <point x="304" y="371" type="curve"/>
      <point x="673" y="425"/>
      <point x="957" y="510"/>
      <point x="957" y="755" type="curve" smooth="yes"/>
      <point x="957" y="922"/>
      <point x="820" y="1052"/>
      <point x="613" y="1052" type="curve" smooth="yes"/>
      <point x="302" y="1052"/>
      <point x="112" y="791"/>
      <point x="112" y="512" type="curve" smooth="yes"/>
      <point x="112" y="175"/>
      <point x="345" y="-22"/>
    </contour>
    <contour>
      <point x="293" y="490" type="curve"/>
      <point x="291" y="506"/>
      <point x="290" y="525"/>
      <point x="290" y="539" type="curve" smooth="yes"/>
      <point x="290" y="789"/>
      <point x="457" y="916"/>
      <point x="614" y="916" type="curve" smooth="yes"/>
      <point x="729" y="916"/>
      <point x="794" y="852"/>
      <point x="794" y="758" type="curve" smooth="yes"/>
      <point x="794" y="597"/>
      <point x="587" y="534"/>
    </contour>
  </outline>
</glyph>
<glyph name="f" format="1">
  <advance width="750"/>
  <unicode hex="0066"/>
  <outline>
    <contour>
      <point x="396" y="0" type="line"/>
      <point x="237" y="0" type="line"/>
      <point x="237" y="920" type="line"/>
      <point x="35" y="920" type="line"/>
      <point x="35" y="1026" type="line"/>
      <point x="237" y="1026" type="line"/>
      <point x="237" y="1147" type="line" smooth="yes"/>
      <point x="237" y="1380"/>
      <point x="334" y="1560"/>
      <point x="714" y="1560" type="curve"/>
      <point x="731" y="1424" type="line"/>
      <point x="492" y="1424"/>
      <point x="396" y="1336"/>
      <point x="396" y="1159" type="curve" smooth="yes"/>
      <point x="396" y="1026" type="line"/>
      <point x="666" y="1026" type="line"/>
      <point x="666" y="920" type="line"/>
      <point x="396" y="920" type="line"/>
    </contour>
  </outline>
</glyph>
<glyph name="g" format="1">
  <advance width="1170"/>
  <unicode hex="0067"/>
  <outline>
    <contour>
      <point x="533" y="-494" type="curve" smooth="yes"/>
      <point x="820" y="-494"/>
      <point x="1018" y="-271"/>
      <point x="1018" y="32" type="curve" smooth="yes"/>
      <point x="1018" y="966" type="line"/>
      <point x="938" y="1018"/>
      <point x="798" y="1052"/>
      <point x="669" y="1052" type="curve" smooth="yes"/>
      <point x="337" y="1052"/>
      <point x="115" y="824"/>
      <point x="115" y="442" type="curve" smooth="yes"/>
      <point x="115" y="166"/>
      <point x="283" y="-22"/>
      <point x="523" y="-22" type="curve" smooth="yes"/>
      <point x="659" y="-22"/>
      <point x="778" y="28"/>
      <point x="854" y="153" type="curve"/>
      <point x="854" y="11" type="line" smooth="yes"/>
      <point x="854" y="-227"/>
      <point x="721" y="-357"/>
      <point x="520" y="-357" type="curve" smooth="yes"/>
      <point x="435" y="-357"/>
      <point x="315" y="-326"/>
      <point x="224" y="-280" type="curve"/>
      <point x="208" y="-433" type="line"/>
      <point x="308" y="-470"/>
      <point x="436" y="-494"/>
    </contour>
    <contour>
      <point x="544" y="114" type="curve" smooth="yes"/>
      <point x="388" y="114"/>
      <point x="285" y="252"/>
      <point x="285" y="452" type="curve" smooth="yes"/>
      <point x="285" y="738"/>
      <point x="434" y="916"/>
      <point x="666" y="916" type="curve" smooth="yes"/>
      <point x="739" y="916"/>
      <point x="814" y="893"/>
      <point x="854" y="881" type="curve"/>
      <point x="854" y="476" type="line" smooth="yes"/>
      <point x="854" y="273"/>
      <point x="748" y="114"/>
    </contour>
  </outline>
</glyph>
<glyph name="h" format="1">
  <advance width="1233"/>
  <unicode hex="0068"/>
  <outline>
    <contour>
      <point x="1168" y="-20" type="line"/>
      <point x="1189" y="110" type="line"/>
      <point x="1165" y="110" type="line" smooth="yes"/>
      <point x="1062" y="110"/>
      <point x="1030" y="172"/>
      <point x="1030" y="320" type="curve" smooth="yes"/>
      <point x="1030" y="569" type="line" smooth="yes"/>
      <point x="1030" y="907"/>
      <point x="905" y="1052"/>
      <point x="681" y="1052" type="curve" smooth="yes"/>
      <point x="535" y="1052"/>
      <point x="395" y="984"/>
      <point x="328" y="867" type="curve"/>
      <point x="328" y="1526" type="line"/>
      <point x="164" y="1526" type="line"/>
      <point x="164" y="0" type="line"/>
      <point x="328" y="0" type="line"/>
      <point x="328" y="545" type="line" smooth="yes"/>
      <point x="328" y="794"/>
      <point x="514" y="916"/>
      <point x="660" y="916" type="curve" smooth="yes"/>
      <point x="808" y="916"/>
      <point x="866" y="812"/>
      <point x="866" y="566" type="curve" smooth="yes"/>
      <point x="866" y="294" type="line" smooth="yes"/>
      <point x="866" y="74"/>
      <point x="947" y="-20"/>
      <point x="1155" y="-20" type="curve" smooth="yes"/>
    </contour>
  </outline>
</glyph>
<glyph name="i" format="1">
  <advance width="574"/>
  <unicode hex="0069"/>
  <outline>
    <contour>
      <point x="277" y="1236" type="curve" smooth="yes"/>
      <point x="217" y="1236"/>
      <point x="158" y="1274"/>
      <point x="158" y="1347" type="curve" smooth="yes"/>
      <point x="158" y="1421"/>
      <point x="218" y="1458"/>
      <point x="278" y="1458" type="curve" smooth="yes"/>
      <point x="337" y="1458"/>
      <point x="396" y="1420"/>
      <point x="396" y="1346" type="curve" smooth="yes"/>
      <point x="396" y="1273"/>
      <point x="336" y="1236"/>
    </contour>
    <contour>
      <point x="516" y="-14" type="line"/>
      <point x="275" y="-33"/>
      <point x="185" y="71"/>
      <point x="185" y="293" type="curve" smooth="yes"/>
      <point x="185" y="1026" type="line"/>
      <point x="349" y="1026" type="line"/>
      <point x="349" y="278" type="line" smooth="yes"/>
      <point x="349" y="130"/>
      <point x="430" y="110"/>
      <point x="543" y="120" type="curve"/>
    </contour>
  </outline>
</glyph>
<glyph name="j" format="1">
  <advance width="569.483571705"/>
  <unicode hex="006A"/>
  <outline>
    <contour>
      <point x="348" y="1236" type="curve" smooth="yes"/>
      <point x="288" y="1236"/>
      <point x="229" y="1274"/>
      <point x="229" y="1347" type="curve" smooth="yes"/>
      <point x="229" y="1421"/>
      <point x="289" y="1458"/>
      <point x="349" y="1458" type="curve" smooth="yes"/>
      <point x="408" y="1458"/>
      <point x="467" y="1420"/>
      <point x="467" y="1346" type="curve" smooth="yes"/>
      <point x="467" y="1273"/>
      <point x="407" y="1236"/>
    </contour>
    <contour>
      <point x="151" y="-464" type="curve" smooth="yes"/>
      <point x="94" y="-464"/>
      <point x="33" y="-452"/>
      <point x="0" y="-443" type="curve"/>
      <point x="15" y="-311" type="line"/>
      <point x="15" y="-311"/>
      <point x="70" y="-329"/>
      <point x="128" y="-329" type="curve" smooth="yes"/>
      <point x="239" y="-329"/>
      <point x="266" y="-269"/>
      <point x="266" y="-76" type="curve" smooth="yes"/>
      <point x="266" y="1026" type="line"/>
      <point x="431" y="1026" type="line"/>
      <point x="431" y="-84" type="line" smooth="yes"/>
      <point x="431" y="-360"/>
      <point x="352" y="-464"/>
    </contour>
  </outline>
</glyph>
<glyph name="k" format="1">
  <advance width="1081.20512821"/>
  <unicode hex="006B"/>
  <outline>
    <contour>
      <point x="1068" y="0" type="line"/>
      <point x="851" y="0" type="line"/>
      <point x="303" y="505" type="line"/>
      <point x="799" y="1026" type="line"/>
      <point x="1006" y="1026" type="line"/>
      <point x="514" y="513" type="line"/>
    </contour>
    <contour>
      <point x="352" y="0" type="line"/>
      <point x="188" y="0" type="line"/>
      <point x="188" y="1560" type="line"/>
      <point x="352" y="1560" type="line"/>
    </contour>
  </outline>
</glyph>
<glyph name="l" format="1">
  <advance width="608.222222222"/>
  <unicode hex="006C"/>
  <outline>
    <contour>
      <point x="578" y="-14" type="line"/>
      <point x="221" y="-49"/>
      <point x="188" y="122"/>
      <point x="188" y="320" type="curve" smooth="yes"/>
      <point x="188" y="1560" type="line"/>
      <point x="352" y="1560" type="line"/>
      <point x="352" y="314" type="line" smooth="yes"/>
      <point x="352" y="179"/>
      <point x="364" y="94"/>
      <point x="585" y="119" type="curve"/>
    </contour>
  </outline>
</glyph>
<glyph name="m" format="1">
  <advance width="1936"/>
  <unicode hex="006D"/>
  <outline>
    <contour>
      <point x="1867" y="-14" type="line"/>
      <point x="1894" y="121" type="line"/>
      <point x="1863" y="121" type="line" smooth="yes"/>
      <point x="1741" y="121"/>
      <point x="1727" y="180"/>
      <point x="1727" y="353" type="curve" smooth="yes"/>
      <point x="1727" y="577" type="line" smooth="yes"/>
      <point x="1727" y="915"/>
      <point x="1598" y="1052"/>
      <point x="1380" y="1052" type="curve" smooth="yes"/>
      <point x="1223" y="1052"/>
      <point x="1087" y="968"/>
      <point x="1009" y="828" type="curve"/>
      <point x="971" y="945"/>
      <point x="879" y="1052"/>
      <point x="714" y="1052" type="curve" smooth="yes"/>
      <point x="536" y="1052"/>
      <point x="420" y="967"/>
      <point x="347" y="832" type="curve"/>
      <point x="340" y="905"/>
      <point x="277" y="989"/>
      <point x="230" y="1026" type="curve"/>
      <point x="88" y="945" type="line"/>
      <point x="142" y="898"/>
      <point x="211" y="813"/>
      <point x="211" y="680" type="curve" smooth="yes"/>
      <point x="211" y="0" type="line"/>
      <point x="375" y="0" type="line"/>
      <point x="375" y="529" type="line" smooth="yes"/>
      <point x="375" y="784"/>
      <point x="509" y="916"/>
      <point x="679" y="916" type="curve" smooth="yes"/>
      <point x="827" y="916"/>
      <point x="893" y="805"/>
      <point x="893" y="566" type="curve" smooth="yes"/>
      <point x="893" y="0" type="line"/>
      <point x="1057" y="0" type="line"/>
      <point x="1057" y="536" type="line" smooth="yes"/>
      <point x="1057" y="803"/>
      <point x="1208" y="916"/>
      <point x="1354" y="916" type="curve" smooth="yes"/>
      <point x="1504" y="916"/>
      <point x="1563" y="825"/>
      <point x="1563" y="579" type="curve" smooth="yes"/>
      <point x="1563" y="324" type="line" smooth="yes"/>
      <point x="1563" y="96"/>
      <point x="1631" y="-14"/>
      <point x="1842" y="-14" type="curve" smooth="yes"/>
    </contour>
  </outline>
</glyph>
<glyph name="p" format="1">
  <advance width="1229"/>
  <unicode hex="0070"/>
  <outline>
    <contour>
      <point x="212" y="-574" type="line"/>
      <point x="212" y="663" type="line" smooth="yes"/>
      <point x="212" y="819"/>
      <point x="114" y="867"/>
      <point x="70" y="891" type="curve"/>
      <point x="151" y="1026" type="line"/>
      <point x="197" y="1009"/>
      <point x="319" y="942"/>
      <point x="340" y="830" type="curve"/>
      <point x="412" y="1000"/>
      <point x="549" y="1052"/>
      <point x="705" y="1052" type="curve" smooth="yes"/>
      <point x="962" y="1052"/>
      <point x="1119" y="853"/>
      <point x="1119" y="543" type="curve" smooth="yes"/>
      <point x="1119" y="186"/>
      <point x="917" y="-22"/>
      <point x="627" y="-22" type="curve" smooth="yes"/>
      <point x="549" y="-22"/>
      <point x="465" y="-7"/>
      <point x="377" y="24" type="curve"/>
      <point x="377" y="-574" type="line"/>
    </contour>
    <contour>
      <point x="376" y="166" type="line"/>
      <point x="452" y="132"/>
      <point x="529" y="114"/>
      <point x="601" y="114" type="curve" smooth="yes"/>
      <point x="794" y="114"/>
      <point x="950" y="239"/>
      <point x="950" y="541" type="curve" smooth="yes"/>
      <point x="950" y="785"/>
      <point x="848" y="916"/>
      <point x="670" y="916" type="curve" smooth="yes"/>
      <point x="524" y="916"/>
      <point x="376" y="800"/>
      <point x="376" y="508" type="curve" smooth="yes"/>
    </contour>
  </outline>
</glyph>
<glyph name="r" format="1">
  <advance width="857.0"/>
  <unicode hex="0072"/>
  <outline>
    <contour>
      <point x="212.0" y="0.0" type="line"/>
      <point x="212" y="650" type="line" smooth="yes"/>
      <point x="212" y="778"/>
      <point x="163" y="846"/>
      <point x="70" y="891" type="curve"/>
      <point x="151" y="1026" type="line"/>
      <point x="195" y="1011"/>
      <point x="320" y="940"/>
      <point x="340" y="829" type="curve"/>
      <point x="383" y="961"/>
      <point x="510.0" y="1099"/>
      <point x="773.0" y="1028" type="curve"/>
      <point x="759.0" y="883.0" type="line"/>
      <point x="463.0" y="982"/>
      <point x="376" y="719"/>
      <point x="376" y="457" type="curve" smooth="yes"/>
      <point x="376.0" y="0.0" type="line"/>
    </contour>
  </outline>
</glyph>
<glyph name="v" format="1">
  <advance width="1037.23076923"/>
  <unicode hex="0076"/>
  <outline>
    <contour>
      <point x="436.615384615" y="0" type="line"/>
      <point x="14.6153846154" y="1026" type="line"/>
      <point x="196.615384615" y="1026" type="line"/>
      <point x="470.615384615" y="336" type="line" smooth="yes"/>
      <point x="489.615384615" y="290"/>
      <point x="512.615384615" y="217"/>
      <point x="528.615384615" y="163" type="curve"/>
      <point x="559.615384615" y="264"/>
      <point x="572.615384615" y="309"/>
      <point x="584.615384615" y="336" type="curve"/>
      <point x="845.615384615" y="1026" type="line"/>
      <point x="1022.61538462" y="1026" type="line"/>
      <point x="604.615384615" y="0" type="line"/>
    </contour>
  </outline>
</glyph>
<glyph name="w" format="1">
  <advance width="1643.4"/>
  <unicode hex="0077"/>
  <outline>
    <contour>
      <point x="380.2" y="0" type="line"/>
      <point x="15.2" y="1026" type="line"/>
      <point x="191.2" y="1026" type="line"/>
      <point x="440.2" y="284" type="line" smooth="yes"/>
      <point x="450.2" y="255"/>
      <point x="459.2" y="217"/>
      <point x="469.2" y="186" type="curve"/>
      <point x="479.2" y="214"/>
      <point x="488.2" y="249"/>
      <point x="500.2" y="276" type="curve"/>
      <point x="756.2" y="1026" type="line"/>
      <point x="915.2" y="1026" type="line"/>
      <point x="1156.2" y="286" type="line" smooth="yes"/>
      <point x="1166.2" y="258"/>
      <point x="1175.2" y="219"/>
      <point x="1185.2" y="189" type="curve"/>
      <point x="1198.2" y="219"/>
      <point x="1207.2" y="255"/>
      <point x="1219.2" y="287" type="curve"/>
      <point x="1459.2" y="1026" type="line"/>
      <point x="1628.2" y="1026" type="line"/>
      <point x="1260.2" y="0" type="line"/>
      <point x="1100.2" y="0" type="line"/>
      <point x="830.2" y="831" type="line"/>
      <point x="542.2" y="0" type="line"/>
    </contour>
  </outline>
</glyph>
<glyph name="asciitilde" format="1">
  <advance width="1331"/>
  <unicode hex="007E"/>
  <outline>
    <contour>
      <point x="265" y="625" type="curve"/>
      <point x="150" y="680" type="line"/>
      <point x="182" y="833"/>
      <point x="291" y="945"/>
      <point x="445" y="945" type="curve" smooth="yes"/>
      <point x="504" y="945"/>
      <point x="558" y="923"/>
      <point x="605" y="904" type="curve" smooth="yes"/>
      <point x="704" y="863"/>
      <point x="821" y="785"/>
      <point x="892" y="785" type="curve" smooth="yes"/>
      <point x="988" y="785"/>
      <point x="1041" y="881"/>
      <point x="1059" y="963" type="curve"/>
      <point x="1184" y="924" type="line"/>
      <point x="1147" y="768"/>
      <point x="1046" y="650"/>
      <point x="891" y="650" type="curve" smooth="yes"/>
      <point x="841" y="650"/>
      <point x="791" y="673"/>
      <point x="751" y="692" type="curve" smooth="yes"/>
      <point x="652" y="738"/>
      <point x="534" y="811"/>
      <point x="447" y="811" type="curve" smooth="yes"/>
      <point x="341" y="811"/>
      <point x="285" y="715"/>
    </contour>
  </outline>
</glyph>
<glyph name="cent" format="1">
  <advance width="1051"/>
  <unicode hex="00A2"/>
  <outline>
    <contour>
      <point x="556" y="-235" type="line"/>
      <point x="556" y="1281" type="line"/>
      <point x="664" y="1281" type="line"/>
      <point x="664" y="-235" type="line"/>
    </contour>
    <component base="c"/>
  </outline>
</glyph>
<glyph name="sterling" format="1">
  <advance width="1273"/>
  <unicode hex="00A3"/>
  <outline>
    <contour>
      <point x="188" y="0" type="line"/>
      <point x="188" y="138" type="line"/>
      <point x="292" y="199"/>
      <point x="345" y="332"/>
      <point x="345" y="500" type="curve" smooth="yes"/>
      <point x="345" y="660" type="line"/>
      <point x="162" y="660" type="line"/>
      <point x="162" y="792" type="line"/>
      <point x="344" y="792" type="line"/>
      <point x="344" y="926" type="line" smooth="yes"/>
      <point x="344" y="1276"/>
      <point x="467" y="1483"/>
      <point x="763" y="1483" type="curve" smooth="yes"/>
      <point x="902" y="1483"/>
      <point x="1011" y="1453"/>
      <point x="1088" y="1392" type="curve"/>
      <point x="1036" y="1261" type="line"/>
      <point x="966" y="1304"/>
      <point x="880" y="1331"/>
      <point x="773" y="1331" type="curve" smooth="yes"/>
      <point x="573" y="1331"/>
      <point x="516" y="1191"/>
      <point x="516" y="982" type="curve" smooth="yes"/>
      <point x="516" y="792" type="line"/>
      <point x="833" y="792" type="line"/>
      <point x="833" y="660" type="line"/>
      <point x="518" y="660" type="line"/>
      <point x="518" y="551" type="line" smooth="yes"/>
      <point x="518" y="352"/>
      <point x="475" y="217"/>
      <point x="381" y="141" type="curve"/>
      <point x="1107" y="141" type="line"/>
      <point x="1107" y="0" type="line"/>
    </contour>
  </outline>
</glyph>
<glyph name="yen" format="1">
  <advance width="1269.05263158"/>
  <unicode hex="00A5"/>
  <outline>
    <contour>
      <point x="186" y="283" type="line"/>
      <point x="186" y="403" type="line"/>
      <point x="565" y="403" type="line"/>
      <point x="565" y="574" type="line"/>
      <point x="180" y="574" type="line"/>
      <point x="180" y="696" type="line"/>
      <point x="1084" y="696" type="line"/>
      <point x="1084" y="574" type="line"/>
      <point x="706" y="574" type="line"/>
      <point x="706" y="403" type="line"/>
      <point x="1087" y="403" type="line"/>
      <point x="1087" y="283" type="line"/>
    </contour>
    <component base="Y"/>
  </outline>
</glyph>
<glyph name="brokenbar" format="1">
  <advance width="557"/>
  <unicode hex="00A6"/>
  <outline>
    <contour>
      <point x="200" y="-491" type="line"/>
      <point x="200" y="393" type="line"/>
      <point x="357" y="393" type="line"/>
      <point x="357" y="-491" type="line"/>
    </contour>
    <contour>
      <point x="200" y="677" type="line"/>
      <point x="200" y="1560" type="line"/>
      <point x="357" y="1560" type="line"/>
      <point x="357" y="677" type="line"/>
    </contour>
  </outline>
</glyph>
<glyph name="dieresis" format="1">
  <advance width="753"/>
  <unicode hex="00A8"/>
  <outline>
    <contour>
      <point x="131" y="1183" type="line"/>
      <point x="131" y="1346" type="line"/>
      <point x="295" y="1346" type="line"/>
      <point x="295" y="1183" type="line"/>
    </contour>
    <contour>
      <point x="463" y="1183" type="line"/>
      <point x="463" y="1346" type="line"/>
      <point x="627" y="1346" type="line"/>
      <point x="627" y="1183" type="line"/>
    </contour>
  </outline>
</glyph>
<glyph name="copyright" format="1">
  <advance width="1790"/>
  <unicode hex="00A9"/>
  <outline>
    <contour>
      <point x="928" y="249" type="curve" smooth="yes"/>
      <point x="1043" y="249"/>
      <point x="1141" y="279"/>
      <point x="1224" y="339" type="curve"/>
      <point x="1187" y="460" type="line"/>
      <point x="1129" y="411"/>
      <point x="1055" y="380"/>
      <point x="958" y="380" type="curve" smooth="yes"/>
      <point x="901" y="380"/>
      <point x="852" y="390"/>
      <point x="809" y="408" type="curve" smooth="yes"/>
      <point x="693" y="458"/>
      <point x="614" y="566"/>
      <point x="614" y="733" type="curve" smooth="yes"/>
      <point x="614" y="781"/>
      <point x="622" y="826"/>
      <point x="636" y="868" type="curve" smooth="yes"/>
      <point x="678" y="989"/>
      <point x="776" y="1080"/>
      <point x="932" y="1080" type="curve" smooth="yes"/>
      <point x="1035" y="1080"/>
      <point x="1121" y="1048"/>
      <point x="1191" y="985" type="curve"/>
      <point x="1221" y="1105" type="line"/>
      <point x="1143" y="1174"/>
      <point x="1048" y="1208"/>
      <point x="938" y="1208" type="curve" smooth="yes"/>
      <point x="867" y="1208"/>
      <point x="803" y="1196"/>
      <point x="745" y="1172" type="curve" smooth="yes"/>
      <point x="583" y="1106"/>
      <point x="461" y="959"/>
      <point x="461" y="729" type="curve" smooth="yes"/>
      <point x="461" y="662"/>
      <point x="473" y="600"/>
      <point x="497" y="542" type="curve" smooth="yes"/>
      <point x="564" y="378"/>
      <point x="710" y="249"/>
    </contour>
    <contour>
      <point x="903" y="-32" type="curve" smooth="yes"/>
      <point x="1142" y="-32"/>
      <point x="1319" y="67"/>
      <point x="1446" y="192" type="curve" smooth="yes"/>
      <point x="1570" y="313"/>
      <point x="1679" y="485"/>
      <point x="1679" y="725" type="curve" smooth="yes"/>
      <point x="1679" y="794"/>
      <point x="1669" y="860"/>
      <point x="1650" y="924" type="curve" smooth="yes"/>
      <point x="1609" y="1059"/>
      <point x="1535" y="1170"/>
      <point x="1446" y="1258" type="curve" smooth="yes"/>
      <point x="1318" y="1383"/>
      <point x="1139" y="1483"/>
      <point x="897" y="1483" type="curve" smooth="yes"/>
      <point x="658" y="1483"/>
      <point x="475" y="1385"/>
      <point x="347" y="1260" type="curve" smooth="yes"/>
      <point x="223" y="1139"/>
      <point x="113" y="967"/>
      <point x="113" y="726" type="curve" smooth="yes"/>
      <point x="113" y="657"/>
      <point x="123" y="590"/>
      <point x="142" y="526" type="curve" smooth="yes"/>
      <point x="183" y="391"/>
      <point x="256" y="280"/>
      <point x="346" y="192" type="curve" smooth="yes"/>
      <point x="474" y="67"/>
      <point x="661" y="-32"/>
    </contour>
    <contour>
      <point x="902" y="85" type="curve" smooth="yes"/>
      <point x="702" y="85"/>
      <point x="539" y="164"/>
      <point x="428" y="270" type="curve"/>
      <point x="323" y="373"/>
      <point x="240" y="527"/>
      <point x="240" y="727" type="curve" smooth="yes"/>
      <point x="240" y="926"/>
      <point x="323" y="1080"/>
      <point x="428" y="1182" type="curve"/>
      <point x="538" y="1286"/>
      <point x="700" y="1366"/>
      <point x="898" y="1366" type="curve" smooth="yes"/>
      <point x="1097" y="1366"/>
      <point x="1257" y="1285"/>
      <point x="1364" y="1180" type="curve" smooth="yes"/>
      <point x="1469" y="1077"/>
      <point x="1552" y="924"/>
      <point x="1552" y="724" type="curve" smooth="yes"/>
      <point x="1552" y="525"/>
      <point x="1469" y="372"/>
      <point x="1365" y="270" type="curve" smooth="yes"/>
      <point x="1258" y="165"/>
      <point x="1101" y="85"/>
    </contour>
  </outline>
</glyph>
<glyph name="guillemotleft" format="1">
  <advance width="1153"/>
  <unicode hex="00AB"/>
  <outline>
    <contour>
      <point x="524" y="171" type="line"/>
      <point x="256" y="541" type="line"/>
      <point x="530" y="914" type="line"/>
      <point x="683" y="914" type="line"/>
      <point x="426" y="541" type="line"/>
      <point x="675" y="171" type="line"/>
    </contour>
    <contour>
      <point x="883" y="171" type="line"/>
      <point x="621" y="541" type="line"/>
      <point x="888" y="914" type="line"/>
      <point x="1047" y="914" type="line"/>
      <point x="784" y="541" type="line"/>
      <point x="1040" y="171" type="line"/>
    </contour>
  </outline>
</glyph>
<glyph name="logicalnot" format="1">
  <advance width="1417"/>
  <unicode hex="00AC"/>
  <outline>
    <contour>
      <point x="1068" y="238" type="line"/>
      <point x="1068" y="659" type="line"/>
      <point x="196" y="659" type="line"/>
      <point x="196" y="798" type="line"/>
      <point x="1218" y="798" type="line"/>
      <point x="1218" y="238" type="line"/>
    </contour>
  </outline>
</glyph>
<glyph name="macron" format="1">
  <advance width="972"/>
  <unicode hex="00AF"/>
  <outline>
    <contour>
      <point x="200" y="1322" type="line"/>
      <point x="200" y="1456" type="line"/>
      <point x="772" y="1456" type="line"/>
      <point x="772" y="1322" type="line"/>
    </contour>
  </outline>
</glyph>
<glyph name="degree" format="1">
  <advance width="1052"/>
  <unicode hex="00B0"/>
  <outline>
    <contour>
      <point x="526" y="1042" type="curve" smooth="yes"/>
      <point x="662" y="1042"/>
      <point x="730" y="1149"/>
      <point x="730" y="1255" type="curve" smooth="yes"/>
      <point x="730" y="1389"/>
      <point x="635" y="1465"/>
      <point x="526" y="1465" type="curve" smooth="yes"/>
      <point x="391" y="1465"/>
      <point x="322" y="1361"/>
      <point x="322" y="1255" type="curve" smooth="yes"/>
      <point x="322" y="1121"/>
      <point x="409" y="1042"/>
    </contour>
    <contour>
      <point x="526" y="921" type="curve" smooth="yes"/>
      <point x="321" y="921"/>
      <point x="190" y="1081"/>
      <point x="190" y="1254" type="curve" smooth="yes"/>
      <point x="190" y="1471"/>
      <point x="361" y="1586"/>
      <point x="526" y="1586" type="curve" smooth="yes"/>
      <point x="733" y="1586"/>
      <point x="862" y="1428"/>
      <point x="862" y="1254" type="curve" smooth="yes"/>
      <point x="862" y="1036"/>
      <point x="689" y="921"/>
    </contour>
  </outline>
</glyph>
<glyph name="uni00B3" format="1">
  <advance width="1200"/>
  <unicode hex="00B3"/>
  <outline>
    <contour>
      <point x="491" y="586" type="curve" smooth="yes"/>
      <point x="531" y="586"/>
      <point x="570" y="592"/>
      <point x="606" y="603" type="curve" smooth="yes"/>
      <point x="704" y="634"/>
      <point x="790" y="708"/>
      <point x="790" y="834" type="curve" smooth="yes"/>
      <point x="790" y="937"/>
      <point x="736" y="999"/>
      <point x="662" y="1032" type="curve"/>
      <point x="724" y="1065"/>
      <point x="769" y="1124"/>
      <point x="769" y="1213" type="curve" smooth="yes"/>
      <point x="769" y="1250"/>
      <point x="761" y="1282"/>
      <point x="746" y="1310" type="curve" smooth="yes"/>
      <point x="704" y="1388"/>
      <point x="616" y="1441"/>
      <point x="497" y="1441" type="curve" smooth="yes"/>
      <point x="393" y="1441"/>
      <point x="300" y="1394"/>
      <point x="245" y="1340" type="curve"/>
      <point x="303" y="1244" type="line"/>
      <point x="352" y="1284"/>
      <point x="413" y="1322"/>
      <point x="495" y="1322" type="curve" smooth="yes"/>
      <point x="576" y="1322"/>
      <point x="636" y="1291"/>
      <point x="636" y="1210" type="curve" smooth="yes"/>
      <point x="636" y="1110"/>
      <point x="540" y="1089"/>
      <point x="439" y="1089" type="curve" smooth="yes"/>
      <point x="390" y="1089" type="line"/>
      <point x="390" y="970" type="line"/>
      <point x="416" y="970" type="line" smooth="yes"/>
      <point x="425" y="970"/>
      <point x="439" y="971"/>
      <point x="446" y="971" type="curve" smooth="yes"/>
      <point x="559" y="971"/>
      <point x="661" y="948"/>
      <point x="661" y="837" type="curve" smooth="yes"/>
      <point x="661" y="745"/>
      <point x="580" y="701"/>
      <point x="486" y="701" type="curve" smooth="yes"/>
      <point x="421" y="701"/>
      <point x="361" y="727"/>
      <point x="305" y="779" type="curve"/>
      <point x="245" y="683" type="line"/>
      <point x="302" y="626"/>
      <point x="384" y="586"/>
    </contour>
  </outline>
</glyph>
<glyph name="acute" format="1">
  <advance width="617"/>
  <unicode hex="00B4"/>
  <outline>
    <contour>
      <point x="185" y="1172" type="line"/>
      <point x="411" y="1492" type="line"/>
      <point x="623" y="1492" type="line"/>
      <point x="315" y="1172" type="line"/>
    </contour>
  </outline>
</glyph>
<glyph name="periodcentered" format="1">
  <advance width="617"/>
  <unicode hex="00B7"/>
  <outline>
    <contour>
      <point x="308.5" y="1134.5" type="curve" smooth="yes"/>
      <point x="402.55" y="1134.5"/>
      <point x="449.6" y="1061.47"/>
      <point x="449.6" y="988.46" type="curve" smooth="yes"/>
      <point x="449.6" y="915.474"/>
      <point x="402.584" y="842.5"/>
      <point x="308.5" y="842.5" type="curve" smooth="yes"/>
      <point x="214.326" y="842.5"/>
      <point x="167.025" y="915.72"/>
      <point x="167.025" y="988.83" type="curve" smooth="yes"/>
      <point x="167.025" y="1061.72"/>
      <point x="214.042" y="1134.5"/>
    </contour>
  </outline>
</glyph>
<glyph name="ordmasculine" format="1">
  <advance width="824"/>
  <unicode hex="00BA"/>
  <outline>
    <contour>
      <point x="421" y="767" type="curve" smooth="yes"/>
      <point x="477" y="767"/>
      <point x="527" y="776"/>
      <point x="571" y="795" type="curve" smooth="yes"/>
      <point x="691" y="845"/>
      <point x="775" y="954"/>
      <point x="775" y="1121" type="curve" smooth="yes"/>
      <point x="775" y="1171"/>
      <point x="767" y="1217"/>
      <point x="752" y="1260" type="curve" smooth="yes"/>
      <point x="706" y="1390"/>
      <point x="591" y="1476"/>
      <point x="420" y="1476" type="curve" smooth="yes"/>
      <point x="364" y="1476"/>
      <point x="316" y="1466"/>
      <point x="271" y="1448" type="curve" smooth="yes"/>
      <point x="150" y="1398"/>
      <point x="63" y="1291"/>
      <point x="63" y="1124" type="curve" smooth="yes"/>
      <point x="63" y="901"/>
      <point x="201" y="767"/>
    </contour>
    <contour>
      <point x="421" y="875" type="curve" smooth="yes"/>
      <point x="279" y="875"/>
      <point x="203" y="977"/>
      <point x="203" y="1123" type="curve" smooth="yes"/>
      <point x="203" y="1264"/>
      <point x="281" y="1369"/>
      <point x="418" y="1369" type="curve" smooth="yes"/>
      <point x="558" y="1369"/>
      <point x="637" y="1264"/>
      <point x="637" y="1119" type="curve" smooth="yes"/>
      <point x="637" y="979"/>
      <point x="558" y="875"/>
    </contour>
  </outline>
</glyph>
<glyph name="guillemotright" format="1">
  <advance width="1152"/>
  <unicode hex="00BB"/>
  <outline>
    <contour>
      <point x="723" y="914" type="line"/>
      <point x="992" y="542" type="line"/>
      <point x="718" y="171" type="line"/>
      <point x="567" y="171" type="line"/>
      <point x="820" y="542" type="line"/>
      <point x="574" y="914" type="line"/>
    </contour>
    <contour>
      <point x="340" y="914" type="line"/>
      <point x="602" y="542" type="line"/>
      <point x="335" y="171" type="line"/>
      <point x="175" y="171" type="line"/>
      <point x="439" y="542" type="line"/>
      <point x="182" y="914" type="line"/>
    </contour>
  </outline>
</glyph>
<glyph name="onequarter" format="1">
  <advance width="2384"/>
  <unicode hex="00BC"/>
  <outline>
    <contour>
      <point x="-327" y="0" type="line"/>
      <point x="-176" y="0" type="line"/>
      <point x="589" y="1262" type="line"/>
      <point x="589" y="1203" type="line"/>
      <point x="637" y="1222"/>
      <point x="693" y="1248"/>
      <point x="735" y="1271" type="curve"/>
      <point x="735" y="1168" type="line" smooth="yes"/>
      <point x="735" y="1116"/>
      <point x="736" y="1067"/>
      <point x="736" y="1008" type="curve" smooth="yes"/>
      <point x="736" y="723" type="line"/>
      <point x="619" y="723" type="line"/>
      <point x="619" y="604" type="line"/>
      <point x="969" y="604" type="line"/>
      <point x="969" y="720" type="line"/>
      <point x="852" y="720" type="line"/>
      <point x="852" y="1427" type="line"/>
      <point x="751" y="1412" type="line"/>
      <point x="716" y="1391"/>
      <point x="683" y="1371"/>
      <point x="645" y="1354" type="curve"/>
      <point x="695" y="1436" type="line"/>
      <point x="552" y="1436" type="line"/>
    </contour>
    <contour>
      <point x="1844" y="615" type="line"/>
      <point x="1964" y="615" type="line"/>
      <point x="1964" y="803" type="line"/>
      <point x="2085" y="803" type="line"/>
      <point x="2075" y="910" type="line"/>
      <point x="1966" y="910" type="line"/>
      <point x="1966" y="1412" type="line"/>
      <point x="1832" y="1412" type="line"/>
      <point x="1481" y="894" type="line"/>
      <point x="1481" y="803" type="line"/>
      <point x="1844" y="803" type="line"/>
    </contour>
    <contour>
      <point x="1614" y="910" type="line"/>
      <point x="1844" y="1244" type="line"/>
      <point x="1844" y="910" type="line"/>
    </contour>
  </outline>
</glyph>
<glyph name="threequarters" format="1">
  <advance width="2060"/>
  <unicode hex="00BE"/>
  <outline>
    <contour>
      <point x="543" y="0" type="line"/>
      <point x="1376" y="1456" type="line"/>
      <point x="1525" y="1456" type="line"/>
      <point x="694" y="0" type="line"/>
    </contour>
    <contour>
      <point x="1785" y="617" type="line"/>
      <point x="1785" y="363" type="line"/>
      <point x="1974" y="363" type="line"/>
      <point x="1974" y="264" type="line"/>
      <point x="1786" y="264" type="line"/>
      <point x="1786" y="0" type="line"/>
      <point x="1654" y="0" type="line"/>
      <point x="1654" y="264" type="line"/>
      <point x="1215" y="264" type="line"/>
      <point x="1215" y="355" type="line"/>
      <point x="1576" y="1026" type="line"/>
      <point x="1713" y="1026" type="line"/>
      <point x="1376" y="363" type="line"/>
      <point x="1654" y="363" type="line"/>
      <point x="1654" y="617" type="line"/>
    </contour>
    <contour>
      <point x="347" y="411" type="curve" smooth="yes"/>
      <point x="213" y="411"/>
      <point x="118" y="478"/>
      <point x="110" y="483" type="curve"/>
      <point x="148" y="596" type="line"/>
      <point x="174" y="579"/>
      <point x="247" y="529"/>
      <point x="340" y="529" type="curve" smooth="yes"/>
      <point x="451" y="529"/>
      <point x="540" y="599"/>
      <point x="540" y="718" type="curve" smooth="yes"/>
      <point x="540" y="857"/>
      <point x="461" y="915"/>
      <point x="318" y="914" type="curve"/>
      <point x="263" y="914" type="line"/>
      <point x="263" y="1028" type="line"/>
      <point x="311" y="1028" type="line" smooth="yes"/>
      <point x="450" y="1028"/>
      <point x="526" y="1096"/>
      <point x="519" y="1214" type="curve"/>
      <point x="515" y="1304"/>
      <point x="436" y="1364"/>
      <point x="348" y="1364" type="curve" smooth="yes"/>
      <point x="249" y="1364"/>
      <point x="176" y="1320"/>
      <point x="136" y="1277" type="curve"/>
      <point x="82" y="1370" type="line"/>
      <point x="140" y="1440"/>
      <point x="243" y="1482"/>
      <point x="361" y="1482" type="curve" smooth="yes"/>
      <point x="497" y="1482"/>
      <point x="642" y="1398"/>
      <point x="648" y="1224" type="curve" smooth="yes"/>
      <point x="652" y="1102"/>
      <point x="596" y="1004"/>
      <point x="493" y="972" type="curve"/>
      <point x="606" y="945"/>
      <point x="669" y="849"/>
      <point x="670" y="715" type="curve" smooth="yes"/>
      <point x="672" y="518"/>
      <point x="511" y="411"/>
    </contour>
  </outline>
</glyph>
<glyph name="Oslash" format="1">
  <advance width="1630"/>
  <unicode hex="00D8"/>
  <outline>
    <contour>
      <point x="522" y="-165" type="line"/>
      <point x="593" y="9" type="line"/>
      <point x="661" y="-13"/>
      <point x="736" y="-25"/>
      <point x="819" y="-25" type="curve" smooth="yes"/>
      <point x="1274" y="-25"/>
      <point x="1515" y="336"/>
      <point x="1515" y="728" type="curve" smooth="yes"/>
      <point x="1515" y="1007"/>
      <point x="1392" y="1270"/>
      <point x="1159" y="1399" type="curve"/>
      <point x="1233" y="1581" type="line"/>
      <point x="1113" y="1625" type="line"/>
      <point x="1042" y="1450" type="line"/>
      <point x="975" y="1471"/>
      <point x="901" y="1483"/>
      <point x="819" y="1483" type="curve" smooth="yes"/>
      <point x="364" y="1483"/>
      <point x="122" y="1122"/>
      <point x="122" y="728" type="curve" smooth="yes"/>
      <point x="122" y="450"/>
      <point x="245" y="187"/>
      <point x="479" y="58" type="curve"/>
      <point x="406" y="-121" type="line"/>
    </contour>
    <contour>
      <point x="540" y="211" type="line"/>
      <point x="402" y="305"/>
      <point x="306" y="479"/>
      <point x="306" y="729" type="curve" smooth="yes"/>
      <point x="306" y="1128"/>
      <point x="552" y="1331"/>
      <point x="819" y="1331" type="curve" smooth="yes"/>
      <point x="876" y="1331"/>
      <point x="930" y="1322"/>
      <point x="983" y="1304" type="curve"/>
    </contour>
    <contour>
      <point x="819" y="127" type="curve" smooth="yes"/>
      <point x="761" y="127"/>
      <point x="706" y="136"/>
      <point x="653" y="155" type="curve"/>
      <point x="1097" y="1246" type="line"/>
      <point x="1234" y="1152"/>
      <point x="1331" y="979"/>
      <point x="1331" y="729" type="curve" smooth="yes"/>
      <point x="1331" y="330"/>
      <point x="1086" y="127"/>
    </contour>
  </outline>
</glyph>
<glyph name="Thorn" format="1">
  <advance width="1261"/>
  <unicode hex="00DE"/>
  <outline>
    <contour>
      <point x="213" y="0" type="line"/>
      <point x="385" y="0" type="line"/>
      <point x="385" y="443" type="line"/>
      <point x="601" y="443" type="line" smooth="yes"/>
      <point x="761" y="443"/>
      <point x="904" y="480"/>
      <point x="1005" y="546" type="curve"/>
      <point x="1108" y="611"/>
      <point x="1187" y="714"/>
      <point x="1187" y="876" type="curve" smooth="yes"/>
      <point x="1187" y="1231"/>
      <point x="891" y="1312"/>
      <point x="550" y="1312" type="curve" smooth="yes"/>
      <point x="385" y="1312" type="line"/>
      <point x="385" y="1456" type="line"/>
      <point x="213" y="1456" type="line"/>
    </contour>
    <contour>
      <point x="385" y="592" type="line"/>
      <point x="385" y="1164" type="line"/>
      <point x="592" y="1164" type="line" smooth="yes"/>
      <point x="822" y="1164"/>
      <point x="1003" y="1114"/>
      <point x="1003" y="874" type="curve" smooth="yes"/>
      <point x="1003" y="825"/>
      <point x="994" y="782"/>
      <point x="976" y="747" type="curve" smooth="yes"/>
      <point x="920" y="639"/>
      <point x="798" y="592"/>
      <point x="639" y="592" type="curve" smooth="yes"/>
    </contour>
  </outline>
</glyph>
<glyph name="eth" format="1">
  <advance width="1173"/>
  <unicode hex="00F0"/>
  <outline>
    <contour>
      <point x="578" y="-23" type="curve" smooth="yes"/>
      <point x="656" y="-23"/>
      <point x="726" y="-8"/>
      <point x="787" y="22" type="curve" smooth="yes"/>
      <point x="990" y="121"/>
      <point x="1077" y="361"/>
      <point x="1077" y="672" type="curve" smooth="yes"/>
      <point x="1077" y="805"/>
      <point x="1059" y="921"/>
      <point x="1029" y="1026" type="curve"/>
      <point x="1174" y="1026" type="line"/>
      <point x="1174" y="1163" type="line"/>
      <point x="977" y="1163" type="line"/>
      <point x="904" y="1315"/>
      <point x="800" y="1428"/>
      <point x="647" y="1490" type="curve"/>
      <point x="572" y="1406" type="line"/>
      <point x="678" y="1344"/>
      <point x="756" y="1271"/>
      <point x="814" y="1163" type="curve"/>
      <point x="616" y="1163" type="line"/>
      <point x="616" y="1026" type="line"/>
      <point x="867" y="1026" type="line"/>
      <point x="890" y="937"/>
      <point x="901" y="847"/>
      <point x="902" y="733" type="curve"/>
      <point x="902" y="723" type="line"/>
      <point x="833" y="838"/>
      <point x="717" y="897"/>
      <point x="544" y="897" type="curve" smooth="yes"/>
      <point x="477" y="897"/>
      <point x="416" y="886"/>
      <point x="362" y="864" type="curve" smooth="yes"/>
      <point x="209" y="802"/>
      <point x="98" y="662"/>
      <point x="98" y="446" type="curve" smooth="yes"/>
      <point x="98" y="380"/>
      <point x="109" y="318"/>
      <point x="132" y="261" type="curve" smooth="yes"/>
      <point x="199" y="93"/>
      <point x="353" y="-23"/>
    </contour>
    <contour>
      <point x="571" y="118" type="curve" smooth="yes"/>
      <point x="526" y="118"/>
      <point x="485" y="126"/>
      <point x="449" y="142" type="curve" smooth="yes"/>
      <point x="346" y="188"/>
      <point x="274" y="291"/>
      <point x="274" y="441" type="curve" smooth="yes"/>
      <point x="274" y="638"/>
      <point x="379" y="757"/>
      <point x="570" y="757" type="curve" smooth="yes"/>
      <point x="733" y="757"/>
      <point x="845" y="664"/>
      <point x="887" y="536" type="curve"/>
      <point x="887" y="512" type="line" smooth="yes"/>
      <point x="887" y="290"/>
      <point x="787" y="118"/>
    </contour>
  </outline>
</glyph>
<glyph name="divide" format="1">
  <advance width="1445"/>
  <unicode hex="00F7"/>
  <outline>
    <contour>
      <point x="622" y="896" type="line"/>
      <point x="622" y="1106" type="line"/>
      <point x="830" y="1106" type="line"/>
      <point x="830" y="896" type="line"/>
    </contour>
    <contour>
      <point x="208" y="527" type="line"/>
      <point x="208" y="666" type="line"/>
      <point x="1234" y="666" type="line"/>
      <point x="1234" y="527" type="line"/>
    </contour>
    <contour>
      <point x="622" y="80" type="line"/>
      <point x="622" y="290" type="line"/>
      <point x="830" y="290" type="line"/>
      <point x="830" y="80" type="line"/>
    </contour>
  </outline>
</glyph>
<glyph name="thorn" format="1">
  <advance width="1223"/>
  <unicode hex="00FE"/>
  <outline>
    <contour>
      <point x="168" y="-427" type="line"/>
      <point x="333" y="-427" type="line"/>
      <point x="333" y="135" type="line"/>
      <point x="416" y="30"/>
      <point x="526" y="-23"/>
      <point x="664" y="-23" type="curve" smooth="yes"/>
      <point x="740" y="-23"/>
      <point x="805" y="-8"/>
      <point x="862" y="22" type="curve" smooth="yes"/>
      <point x="1021" y="106"/>
      <point x="1123" y="284"/>
      <point x="1123" y="527" type="curve" smooth="yes"/>
      <point x="1123" y="598"/>
      <point x="1113" y="664"/>
      <point x="1094" y="728" type="curve" smooth="yes"/>
      <point x="1038" y="916"/>
      <point x="898" y="1051"/>
      <point x="664" y="1051" type="curve" smooth="yes"/>
      <point x="509" y="1051"/>
      <point x="406" y="982"/>
      <point x="335" y="882" type="curve"/>
      <point x="335" y="1455" type="line"/>
      <point x="168" y="1455" type="line"/>
    </contour>
    <contour>
      <point x="641" y="109" type="curve" smooth="yes"/>
      <point x="591" y="109"/>
      <point x="547" y="119"/>
      <point x="509" y="138" type="curve" smooth="yes"/>
      <point x="397" y="195"/>
      <point x="333" y="321"/>
      <point x="333" y="494" type="curve" smooth="yes"/>
      <point x="333" y="732"/>
      <point x="418" y="917"/>
      <point x="647" y="917" type="curve" smooth="yes"/>
      <point x="863" y="917"/>
      <point x="947" y="745"/>
      <point x="947" y="521" type="curve" smooth="yes"/>
      <point x="947" y="296"/>
      <point x="858" y="109"/>
    </contour>
  </outline>
</glyph>
<glyph name="hbar" format="1">
  <advance width="1210"/>
  <unicode hex="0127"/>
  <outline>
    <contour>
      <point x="1118" y="-19" type="line"/>
      <point x="900" y="-51"/>
      <point x="851" y="48"/>
      <point x="853" y="284" type="curve" smooth="yes"/>
      <point x="855" y="562" type="line"/>
      <point x="855" y="804"/>
      <point x="796" y="907"/>
      <point x="648" y="907" type="curve" smooth="yes"/>
      <point x="502" y="907"/>
      <point x="326" y="795"/>
      <point x="326" y="532" type="curve" smooth="yes"/>
      <point x="326" y="0" type="line"/>
      <point x="162" y="0" type="line"/>
      <point x="162" y="1506" type="line"/>
      <point x="326" y="1526" type="line"/>
      <point x="326" y="875" type="line"/>
      <point x="391" y="980"/>
      <point x="535" y="1048"/>
      <point x="681" y="1048" type="curve" smooth="yes"/>
      <point x="906" y="1048"/>
      <point x="1023" y="903"/>
      <point x="1020" y="565" type="curve" smooth="yes"/>
      <point x="1018" y="320" type="line" smooth="yes"/>
      <point x="1017" y="167"/>
      <point x="1010" y="95"/>
      <point x="1134" y="119" type="curve"/>
    </contour>
    <contour>
      <point x="340" y="1624" type="line"/>
      <point x="340" y="1758" type="line"/>
      <point x="891" y="1758" type="line"/>
      <point x="891" y="1624" type="line"/>
    </contour>
  </outline>
</glyph>
<glyph name="dotlessi" format="1">
  <advance width="513"/>
  <unicode hex="0131"/>
  <outline>
    <contour>
      <point x="444" y="-5" type="curve" smooth="yes"/>
      <point x="491" y="-5"/>
      <point x="560" y="10"/>
      <point x="610" y="30" type="curve"/>
      <point x="590" y="141" type="line"/>
      <point x="555" y="128"/>
      <point x="497" y="118"/>
      <point x="467" y="118" type="curve" smooth="yes"/>
      <point x="399" y="118"/>
      <point x="342" y="143"/>
      <point x="342" y="283" type="curve" smooth="yes"/>
      <point x="342" y="1026" type="line"/>
      <point x="177" y="1026" type="line"/>
      <point x="177" y="278" type="line" smooth="yes"/>
      <point x="177" y="67"/>
      <point x="302" y="-5"/>
    </contour>
  </outline>
</glyph>
<glyph name="IJ" format="1">
  <advance width="1564"/>
  <unicode hex="0132"/>
  <outline>
    <contour>
      <point x="586" y="-114" type="curve"/>
      <point x="636" y="22" type="line"/>
      <point x="921" y="-111"/>
      <point x="1106" y="-35"/>
      <point x="1106" y="334" type="curve" smooth="yes"/>
      <point x="1106" y="1314" type="line"/>
      <point x="704" y="1314" type="line"/>
      <point x="704" y="1456" type="line"/>
      <point x="1550" y="1456" type="line"/>
      <point x="1550" y="1314" type="line"/>
      <point x="1278" y="1314" type="line"/>
      <point x="1278" y="336" type="line" smooth="yes"/>
      <point x="1278" y="-176"/>
      <point x="927" y="-285"/>
    </contour>
    <contour>
      <point x="196" y="0" type="line"/>
      <point x="196" y="1456" type="line"/>
      <point x="368" y="1456" type="line"/>
      <point x="368" y="0" type="line"/>
    </contour>
  </outline>
</glyph>
<glyph name="ij" format="1">
  <advance width="1137"/>
  <unicode hex="0133"/>
  <outline>
    <contour>
      <point x="626" y="26" type="line"/>
      <point x="403" y="-69"/>
      <point x="177" y="-19"/>
      <point x="177" y="262" type="curve" smooth="yes"/>
      <point x="177" y="1026" type="line"/>
      <point x="341" y="1026" type="line"/>
      <point x="341" y="267" type="line" smooth="yes"/>
      <point x="341" y="74"/>
      <point x="473" y="96"/>
      <point x="604" y="145" type="curve"/>
    </contour>
    <contour>
      <point x="449" y="-435" type="curve"/>
      <point x="467" y="-307" type="line"/>
      <point x="640" y="-367"/>
      <point x="805" y="-340"/>
      <point x="805" y="29" type="curve" smooth="yes"/>
      <point x="805" y="1026" type="line"/>
      <point x="969" y="1026" type="line"/>
      <point x="969" y="35" type="line" smooth="yes"/>
      <point x="969" y="-416"/>
      <point x="725" y="-523"/>
    </contour>
    <contour>
      <point x="261" y="1245" type="curve" smooth="yes"/>
      <point x="207" y="1245"/>
      <point x="154" y="1279"/>
      <point x="154" y="1345" type="curve" smooth="yes"/>
      <point x="154" y="1411"/>
      <point x="208" y="1444"/>
      <point x="262" y="1444" type="curve" smooth="yes"/>
      <point x="316" y="1444"/>
      <point x="369" y="1410"/>
      <point x="369" y="1344" type="curve" smooth="yes"/>
      <point x="369" y="1278"/>
      <point x="315" y="1245"/>
    </contour>
    <contour>
      <point x="888" y="1245" type="curve" smooth="yes"/>
      <point x="834" y="1245"/>
      <point x="781" y="1279"/>
      <point x="781" y="1345" type="curve" smooth="yes"/>
      <point x="781" y="1411"/>
      <point x="835" y="1444"/>
      <point x="889" y="1444" type="curve" smooth="yes"/>
      <point x="943" y="1444"/>
      <point x="996" y="1410"/>
      <point x="996" y="1344" type="curve" smooth="yes"/>
      <point x="996" y="1278"/>
      <point x="942" y="1245"/>
    </contour>
  </outline>
</glyph>
<glyph name="lslash" format="1">
  <advance width="513"/>
  <unicode hex="0142"/>
  <outline>
    <contour>
      <point x="178" y="0" type="line"/>
      <point x="178" y="689" type="line"/>
      <point x="10" y="589" type="line"/>
      <point x="10" y="726" type="line"/>
      <point x="178" y="826" type="line"/>
      <point x="178" y="1492" type="line"/>
      <point x="343" y="1492" type="line"/>
      <point x="343" y="925" type="line"/>
      <point x="514" y="1027" type="line"/>
      <point x="514" y="890" type="line"/>
      <point x="343" y="788" type="line"/>
      <point x="343" y="0" type="line"/>
    </contour>
  </outline>
</glyph>
<glyph name="oe" format="1">
  <advance width="1929"/>
  <unicode hex="0153"/>
  <outline>
    <contour>
      <point x="606" y="-28" type="curve" smooth="yes"/>
      <point x="809" y="-28"/>
      <point x="944" y="57"/>
      <point x="1005" y="209" type="curve"/>
      <point x="1065" y="62"/>
      <point x="1196" y="-28"/>
      <point x="1393" y="-28" type="curve" smooth="yes"/>
      <point x="1599" y="-28"/>
      <point x="1740" y="63"/>
      <point x="1819" y="206" type="curve"/>
      <point x="1731" y="292" type="line"/>
      <point x="1668" y="192"/>
      <point x="1557" y="109"/>
      <point x="1404" y="109" type="curve" smooth="yes"/>
      <point x="1354" y="109"/>
      <point x="1311" y="118"/>
      <point x="1273" y="135" type="curve" smooth="yes"/>
      <point x="1164" y="185"/>
      <point x="1100" y="296"/>
      <point x="1096" y="450" type="curve"/>
      <point x="1096" y="470" type="line"/>
      <point x="1828" y="472" type="line"/>
      <point x="1828" y="525" type="line" smooth="yes"/>
      <point x="1828" y="835"/>
      <point x="1686" y="1053"/>
      <point x="1388" y="1053" type="curve" smooth="yes"/>
      <point x="1195" y="1053"/>
      <point x="1078" y="963"/>
      <point x="1010" y="821" type="curve"/>
      <point x="935" y="964"/>
      <point x="818" y="1053"/>
      <point x="616" y="1053" type="curve" smooth="yes"/>
      <point x="535" y="1053"/>
      <point x="464" y="1039"/>
      <point x="401" y="1010" type="curve" smooth="yes"/>
      <point x="227" y="932"/>
      <point x="102" y="761"/>
      <point x="102" y="509" type="curve" smooth="yes"/>
      <point x="102" y="435"/>
      <point x="114" y="365"/>
      <point x="137" y="300" type="curve" smooth="yes"/>
      <point x="205" y="110"/>
      <point x="360" y="-28"/>
    </contour>
    <contour>
      <point x="616" y="109" type="curve" smooth="yes"/>
      <point x="557" y="109"/>
      <point x="506" y="120"/>
      <point x="464" y="141" type="curve" smooth="yes"/>
      <point x="345" y="200"/>
      <point x="275" y="327"/>
      <point x="275" y="507" type="curve" smooth="yes"/>
      <point x="275" y="562"/>
      <point x="283" y="614"/>
      <point x="297" y="663" type="curve" smooth="yes"/>
      <point x="337" y="802"/>
      <point x="436" y="917"/>
      <point x="608" y="917" type="curve" smooth="yes"/>
      <point x="833" y="917"/>
      <point x="928" y="745"/>
      <point x="928" y="511" type="curve" smooth="yes"/>
      <point x="928" y="287"/>
      <point x="832" y="109"/>
    </contour>
    <contour>
      <point x="1096" y="609" type="line"/>
      <point x="1099" y="649"/>
      <point x="1108" y="688"/>
      <point x="1122" y="725" type="curve" smooth="yes"/>
      <point x="1163" y="830"/>
      <point x="1253" y="917"/>
      <point x="1393" y="917" type="curve" smooth="yes"/>
      <point x="1570" y="917"/>
      <point x="1655" y="793"/>
      <point x="1655" y="609" type="curve"/>
    </contour>
  </outline>
</glyph>
<glyph name="florin" format="1">
  <advance width="1182"/>
  <unicode hex="0192"/>
  <outline>
    <contour>
      <point x="187" y="-332" type="curve" smooth="yes"/>
      <point x="248" y="-332"/>
      <point x="300" y="-320"/>
      <point x="340" y="-295" type="curve" smooth="yes"/>
      <point x="462" y="-218"/>
      <point x="501" y="-52"/>
      <point x="533" y="120" type="curve"/>
      <point x="655" y="803" type="line"/>
      <point x="864" y="803" type="line"/>
      <point x="874" y="943" type="line"/>
      <point x="677" y="943" type="line"/>
      <point x="712" y="1139" type="line" smooth="yes"/>
      <point x="729" y="1236"/>
      <point x="768" y="1294"/>
      <point x="883" y="1294" type="curve" smooth="yes"/>
      <point x="923" y="1294"/>
      <point x="959" y="1285"/>
      <point x="992" y="1272" type="curve"/>
      <point x="1000" y="1417" type="line"/>
      <point x="956" y="1428"/>
      <point x="907" y="1436"/>
      <point x="857" y="1436" type="curve" smooth="yes"/>
      <point x="640" y="1436"/>
      <point x="560" y="1288"/>
      <point x="535" y="1094" type="curve"/>
      <point x="513" y="943" type="line"/>
      <point x="351" y="943" type="line"/>
      <point x="341" y="803" type="line"/>
      <point x="490" y="803" type="line"/>
      <point x="441" y="538"/>
      <point x="403" y="260"/>
      <point x="343" y="7" type="curve" smooth="yes"/>
      <point x="322" y="-84"/>
      <point x="285" y="-194"/>
      <point x="173" y="-194" type="curve" smooth="yes"/>
      <point x="148" y="-194"/>
      <point x="122" y="-189"/>
      <point x="95" y="-178" type="curve"/>
      <point x="83" y="-316" type="line"/>
      <point x="121" y="-327"/>
      <point x="156" y="-332"/>
    </contour>
  </outline>
</glyph>
<glyph name="uni0237" format="1">
  <advance width="513"/>
  <unicode hex="0237"/>
  <outline>
    <contour>
      <point x="31" y="-429" type="curve" smooth="yes"/>
      <point x="77" y="-429"/>
      <point x="116" y="-422"/>
      <point x="150" y="-407" type="curve" smooth="yes"/>
      <point x="306" y="-339"/>
      <point x="350" y="-150"/>
      <point x="350" y="73" type="curve" smooth="yes"/>
      <point x="350" y="1026" type="line"/>
      <point x="185" y="1026" type="line"/>
      <point x="185" y="31" type="line" smooth="yes"/>
      <point x="185" y="-146"/>
      <point x="148" y="-283"/>
      <point x="-8" y="-283" type="curve" smooth="yes"/>
      <point x="-38" y="-283"/>
      <point x="-62" y="-278"/>
      <point x="-92" y="-273" type="curve"/>
      <point x="-91" y="-416" type="line"/>
      <point x="-53" y="-425"/>
      <point x="-13" y="-429"/>
    </contour>
  </outline>
</glyph>
<glyph name="breve" format="1">
  <advance width="639"/>
  <unicode hex="02D8"/>
  <outline>
    <contour>
      <point x="326" y="1218" type="curve" smooth="yes"/>
      <point x="155" y="1218"/>
      <point x="55" y="1294"/>
      <point x="42" y="1454" type="curve"/>
      <point x="129" y="1454" type="line"/>
      <point x="144" y="1366"/>
      <point x="217" y="1325"/>
      <point x="319" y="1325" type="curve" smooth="yes"/>
      <point x="421" y="1325"/>
      <point x="500" y="1370"/>
      <point x="520" y="1454" type="curve"/>
      <point x="606" y="1454" type="line"/>
      <point x="593" y="1300"/>
      <point x="492" y="1218"/>
    </contour>
  </outline>
</glyph>
<glyph name="ogonek" format="1">
  <advance width="518"/>
  <unicode hex="02DB"/>
  <outline>
    <contour>
      <point x="276" y="-390" type="curve" smooth="yes"/>
      <point x="340" y="-390"/>
      <point x="407" y="-380"/>
      <point x="453" y="-361" type="curve"/>
      <point x="453" y="-250" type="line"/>
      <point x="407" y="-268"/>
      <point x="363" y="-281"/>
      <point x="299" y="-281" type="curve" smooth="yes"/>
      <point x="248" y="-281"/>
      <point x="199" y="-250"/>
      <point x="199" y="-199" type="curve" smooth="yes"/>
      <point x="199" y="-183"/>
      <point x="204" y="-167"/>
      <point x="214" y="-151" type="curve" smooth="yes"/>
      <point x="256" y="-86"/>
      <point x="333" y="-42"/>
      <point x="402" y="0" type="curve"/>
      <point x="273" y="12" type="line"/>
      <point x="219" y="-14"/>
      <point x="165" y="-49"/>
      <point x="125" y="-89" type="curve" smooth="yes"/>
      <point x="92" y="-122"/>
      <point x="58" y="-167"/>
      <point x="58" y="-225" type="curve" smooth="yes"/>
      <point x="58" y="-252"/>
      <point x="64" y="-276"/>
      <point x="75" y="-296" type="curve" smooth="yes"/>
      <point x="109" y="-357"/>
      <point x="182" y="-390"/>
    </contour>
  </outline>
</glyph>
<glyph name="tilde" format="1">
  <advance width="673"/>
  <unicode hex="02DC"/>
  <outline>
    <contour>
      <point x="24" y="1203" type="curve"/>
      <point x="129" y="1203" type="line"/>
      <point x="136" y="1260"/>
      <point x="166" y="1288"/>
      <point x="220" y="1288" type="curve" smooth="yes"/>
      <point x="315" y="1288"/>
      <point x="377" y="1220"/>
      <point x="473" y="1220" type="curve" smooth="yes"/>
      <point x="597" y="1220"/>
      <point x="655" y="1322"/>
      <point x="668" y="1435" type="curve"/>
      <point x="560" y="1435" type="line"/>
      <point x="553" y="1384"/>
      <point x="526" y="1345"/>
      <point x="473" y="1345" type="curve" smooth="yes"/>
      <point x="454" y="1345"/>
      <point x="434" y="1349"/>
      <point x="414" y="1356" type="curve" smooth="yes"/>
      <point x="356" y="1377"/>
      <point x="299" y="1413"/>
      <point x="223" y="1413" type="curve" smooth="yes"/>
      <point x="99" y="1413"/>
      <point x="34" y="1319"/>
    </contour>
  </outline>
</glyph>
<glyph name="uni0326" format="1">
  <advance width="10"/>
  <unicode hex="0326"/>
  <outline>
    <contour>
      <point x="-183" y="-463" type="line"/>
      <point x="-76" y="0" type="line"/>
      <point x="111" y="0" type="line"/>
      <point x="-52" y="-463" type="line"/>
    </contour>
  </outline>
</glyph>
<glyph name="Delta" format="1">
  <advance width="1294"/>
  <unicode hex="0394"/>
  <outline>
    <contour>
      <point x="50" y="0" type="line"/>
      <point x="1244" y="0" type="line"/>
      <point x="1244" y="80" type="line"/>
      <point x="735" y="1429" type="line"/>
      <point x="560" y="1429" type="line"/>
      <point x="50" y="80" type="line"/>
    </contour>
    <contour>
      <point x="279" y="162" type="line"/>
      <point x="612" y="1111" type="line"/>
      <point x="643" y="1218" type="line"/>
      <point x="675" y="1111" type="line"/>
      <point x="1014" y="162" type="line"/>
    </contour>
  </outline>
</glyph>
<glyph name="uni03A9" format="1">
  <advance width="1572"/>
  <unicode hex="03A9"/>
  <outline>
    <contour>
      <point x="114" y="0" type="line"/>
      <point x="641" y="0" type="line"/>
      <point x="638" y="121" type="line"/>
      <point x="588" y="155"/>
      <point x="543" y="195"/>
      <point x="502" y="240" type="curve" smooth="yes"/>
      <point x="393" y="361"/>
      <point x="303" y="531"/>
      <point x="303" y="759" type="curve" smooth="yes"/>
      <point x="303" y="840"/>
      <point x="315" y="914"/>
      <point x="339" y="982" type="curve" smooth="yes"/>
      <point x="405" y="1168"/>
      <point x="555" y="1309"/>
      <point x="794" y="1309" type="curve" smooth="yes"/>
      <point x="874" y="1309"/>
      <point x="943" y="1294"/>
      <point x="1003" y="1264" type="curve" smooth="yes"/>
      <point x="1168" y="1181"/>
      <point x="1273" y="1004"/>
      <point x="1273" y="754" type="curve" smooth="yes"/>
      <point x="1273" y="687"/>
      <point x="1264" y="622"/>
      <point x="1247" y="560" type="curve" smooth="yes"/>
      <point x="1194" y="367"/>
      <point x="1077" y="221"/>
      <point x="933" y="121" type="curve"/>
      <point x="937" y="0" type="line"/>
      <point x="1444" y="0" type="line"/>
      <point x="1453" y="138" type="line"/>
      <point x="1131" y="137" type="line"/>
      <point x="1215" y="206"/>
      <point x="1293" y="296"/>
      <point x="1351" y="398" type="curve" smooth="yes"/>
      <point x="1407" y="498"/>
      <point x="1451" y="621"/>
      <point x="1451" y="772" type="curve" smooth="yes"/>
      <point x="1451" y="980"/>
      <point x="1376" y="1143"/>
      <point x="1270" y="1254" type="curve"/>
      <point x="1165" y="1368"/>
      <point x="1006" y="1449"/>
      <point x="798" y="1449" type="curve" smooth="yes"/>
      <point x="594" y="1449"/>
      <point x="430" y="1374"/>
      <point x="321" y="1266" type="curve"/>
      <point x="206" y="1157"/>
      <point x="124" y="994"/>
      <point x="124" y="776" type="curve" smooth="yes"/>
      <point x="124" y="707"/>
      <point x="132" y="640"/>
      <point x="148" y="578" type="curve" smooth="yes"/>
      <point x="196" y="385"/>
      <point x="305" y="240"/>
      <point x="439" y="137" type="curve"/>
      <point x="103" y="138" type="line"/>
    </contour>
  </outline>
</glyph>
<glyph name="uni03BC" format="1">
  <advance width="1227"/>
  <unicode hex="03BC"/>
  <outline>
    <contour>
      <point x="167" y="-202" type="line"/>
      <point x="332" y="-202" type="line"/>
      <point x="332" y="31" type="line"/>
      <point x="389" y="-3"/>
      <point x="459" y="-23"/>
      <point x="550" y="-23" type="curve" smooth="yes"/>
      <point x="698" y="-23"/>
      <point x="811" y="30"/>
      <point x="888" y="135" type="curve"/>
      <point x="891" y="0" type="line"/>
      <point x="1061" y="0" type="line"/>
      <point x="1054" y="84"/>
      <point x="1053" y="156"/>
      <point x="1053" y="246" type="curve" smooth="yes"/>
      <point x="1053" y="1026" type="line"/>
      <point x="888" y="1026" type="line"/>
      <point x="888" y="436" type="line" smooth="yes"/>
      <point x="888" y="392"/>
      <point x="881" y="350"/>
      <point x="868" y="310" type="curve" smooth="yes"/>
      <point x="830" y="196"/>
      <point x="739" y="109"/>
      <point x="588" y="109" type="curve" smooth="yes"/>
      <point x="406" y="109"/>
      <point x="332" y="214"/>
      <point x="332" y="399" type="curve" smooth="yes"/>
      <point x="332" y="1026" type="line"/>
      <point x="167" y="1026" type="line"/>
    </contour>
  </outline>
</glyph>
<glyph name="emdash" format="1">
  <advance width="2496"/>
  <unicode hex="2014"/>
  <outline>
    <contour>
      <point x="200" y="489" type="line"/>
      <point x="200" y="626" type="line"/>
      <point x="2296" y="626" type="line"/>
      <point x="2296" y="489" type="line"/>
    </contour>
  </outline>
</glyph>
<glyph name="quotedblleft" format="1">
  <advance width="1034"/>
  <unicode hex="201C"/>
  <outline>
    <contour>
      <point x="189" y="1023" type="line"/>
      <point x="343" y="1463" type="line"/>
      <point x="476" y="1463" type="line"/>
      <point x="371" y="1023" type="line"/>
    </contour>
    <contour>
      <point x="538" y="1023" type="line"/>
      <point x="692" y="1463" type="line"/>
      <point x="825" y="1463" type="line"/>
      <point x="721" y="1023" type="line"/>
    </contour>
  </outline>
</glyph>
<glyph name="quotedblright" format="1">
  <advance width="1034"/>
  <unicode hex="201D"/>
  <outline>
    <contour>
      <point x="218" y="1023" type="line"/>
      <point x="322" y="1463" type="line"/>
      <point x="504" y="1463" type="line"/>
      <point x="351" y="1023" type="line"/>
    </contour>
    <contour>
      <point x="544" y="1023" type="line"/>
      <point x="649" y="1463" type="line"/>
      <point x="831" y="1463" type="line"/>
      <point x="677" y="1023" type="line"/>
    </contour>
  </outline>
</glyph>
<glyph name="quotedblbase" format="1">
  <advance width="933"/>
  <unicode hex="201E"/>
  <outline>
    <contour>
      <point x="144" y="-238" type="line"/>
      <point x="249" y="201" type="line"/>
      <point x="431" y="201" type="line"/>
      <point x="278" y="-238" type="line"/>
    </contour>
    <contour>
      <point x="503" y="-238" type="line"/>
      <point x="607" y="201" type="line"/>
      <point x="790" y="201" type="line"/>
      <point x="636" y="-238" type="line"/>
    </contour>
  </outline>
</glyph>
<glyph name="dagger" format="1">
  <advance width="1185"/>
  <unicode hex="2020"/>
  <outline>
    <contour>
      <point x="513" y="0" type="line"/>
      <point x="513" y="904" type="line"/>
      <point x="190" y="904" type="line"/>
      <point x="190" y="1026" type="line"/>
      <point x="513" y="1026" type="line"/>
      <point x="513" y="1456" type="line"/>
      <point x="654" y="1456" type="line"/>
      <point x="654" y="1026" type="line"/>
      <point x="994" y="1026" type="line"/>
      <point x="994" y="904" type="line"/>
      <point x="654" y="904" type="line"/>
      <point x="654" y="0" type="line"/>
    </contour>
  </outline>
</glyph>
<glyph name="daggerdbl" format="1">
  <advance width="1192"/>
  <unicode hex="2021"/>
  <outline>
    <contour>
      <point x="527" y="0" type="line"/>
      <point x="527" y="440" type="line"/>
      <point x="191" y="440" type="line"/>
      <point x="191" y="557" type="line"/>
      <point x="527" y="557" type="line"/>
      <point x="527" y="988" type="line"/>
      <point x="197" y="988" type="line"/>
      <point x="197" y="1110" type="line"/>
      <point x="527" y="1110" type="line"/>
      <point x="527" y="1456" type="line"/>
      <point x="671" y="1456" type="line"/>
      <point x="671" y="1110" type="line"/>
      <point x="1001" y="1110" type="line"/>
      <point x="1001" y="988" type="line"/>
      <point x="671" y="988" type="line"/>
      <point x="671" y="557" type="line"/>
      <point x="994" y="557" type="line"/>
      <point x="994" y="440" type="line"/>
      <point x="671" y="440" type="line"/>
      <point x="671" y="0" type="line"/>
    </contour>
  </outline>
</glyph>
<glyph name="bullet" format="1">
  <advance width="991"/>
  <unicode hex="2022"/>
  <outline>
    <contour>
      <point x="499" y="385" type="curve" smooth="yes"/>
      <point x="596" y="385"/>
      <point x="680" y="426"/>
      <point x="735" y="478" type="curve" smooth="yes"/>
      <point x="789" y="528"/>
      <point x="836" y="604"/>
      <point x="836" y="701" type="curve" smooth="yes"/>
      <point x="836" y="743"/>
      <point x="827" y="782"/>
      <point x="809" y="820" type="curve" smooth="yes"/>
      <point x="760" y="925"/>
      <point x="652" y="1010"/>
      <point x="504" y="1010" type="curve" smooth="yes"/>
      <point x="461" y="1010"/>
      <point x="419" y="1002"/>
      <point x="378" y="985" type="curve" smooth="yes"/>
      <point x="269" y="941"/>
      <point x="167" y="842"/>
      <point x="167" y="694" type="curve" smooth="yes"/>
      <point x="167" y="652"/>
      <point x="176" y="612"/>
      <point x="193" y="575" type="curve" smooth="yes"/>
      <point x="242" y="469"/>
      <point x="350" y="385"/>
    </contour>
  </outline>
</glyph>
<glyph name="ellipsis" format="1">
  <advance width="1604"/>
  <unicode hex="2026"/>
  <outline>
    <contour>
      <point x="169" y="-11" type="line"/>
      <point x="169" y="199" type="line"/>
      <point x="386" y="199" type="line"/>
      <point x="386" y="-11" type="line"/>
    </contour>
    <contour>
      <point x="696" y="-11" type="line"/>
      <point x="696" y="199" type="line"/>
      <point x="913" y="199" type="line"/>
      <point x="913" y="-11" type="line"/>
    </contour>
    <contour>
      <point x="1223" y="-11" type="line"/>
      <point x="1223" y="199" type="line"/>
      <point x="1440" y="199" type="line"/>
      <point x="1440" y="-11" type="line"/>
    </contour>
  </outline>
</glyph>
<glyph name="perthousand" format="1">
  <advance width="2360"/>
  <unicode hex="2030"/>
  <outline>
    <contour>
      <point x="420" y="740" type="curve" smooth="yes"/>
      <point x="473" y="740"/>
      <point x="521" y="748"/>
      <point x="563" y="766" type="curve" smooth="yes"/>
      <point x="680" y="815"/>
      <point x="759" y="928"/>
      <point x="759" y="1092" type="curve" smooth="yes"/>
      <point x="759" y="1312"/>
      <point x="642" y="1447"/>
      <point x="422" y="1447" type="curve" smooth="yes"/>
      <point x="368" y="1447"/>
      <point x="320" y="1438"/>
      <point x="278" y="1420" type="curve" smooth="yes"/>
      <point x="160" y="1371"/>
      <point x="83" y="1260"/>
      <point x="83" y="1095" type="curve" smooth="yes"/>
      <point x="83" y="878"/>
      <point x="202" y="740"/>
    </contour>
    <contour>
      <point x="1174" y="-27" type="curve" smooth="yes"/>
      <point x="1226" y="-27"/>
      <point x="1273" y="-18"/>
      <point x="1313" y="0" type="curve" smooth="yes"/>
      <point x="1429" y="50"/>
      <point x="1506" y="160"/>
      <point x="1506" y="325" type="curve" smooth="yes"/>
      <point x="1506" y="544"/>
      <point x="1389" y="681"/>
      <point x="1178" y="681" type="curve" smooth="yes"/>
      <point x="1125" y="681"/>
      <point x="1078" y="672"/>
      <point x="1038" y="654" type="curve" smooth="yes"/>
      <point x="921" y="604"/>
      <point x="845" y="494"/>
      <point x="845" y="328" type="curve" smooth="yes"/>
      <point x="845" y="111"/>
      <point x="964" y="-27"/>
    </contour>
    <contour>
      <point x="1941" y="-27" type="curve" smooth="yes"/>
      <point x="1993" y="-27"/>
      <point x="2040" y="-18"/>
      <point x="2080" y="0" type="curve" smooth="yes"/>
      <point x="2195" y="49"/>
      <point x="2274" y="161"/>
      <point x="2274" y="325" type="curve" smooth="yes"/>
      <point x="2274" y="545"/>
      <point x="2158" y="681"/>
      <point x="1946" y="681" type="curve" smooth="yes"/>
      <point x="1893" y="681"/>
      <point x="1846" y="672"/>
      <point x="1806" y="654" type="curve" smooth="yes"/>
      <point x="1689" y="604"/>
      <point x="1613" y="494"/>
      <point x="1613" y="328" type="curve" smooth="yes"/>
      <point x="1613" y="112"/>
      <point x="1732" y="-27"/>
    </contour>
    <contour>
      <point x="424" y="853" type="curve" smooth="yes"/>
      <point x="288" y="853"/>
      <point x="229" y="960"/>
      <point x="229" y="1096" type="curve" smooth="yes"/>
      <point x="229" y="1227"/>
      <point x="290" y="1335"/>
      <point x="421" y="1335" type="curve" smooth="yes"/>
      <point x="555" y="1335"/>
      <point x="614" y="1228"/>
      <point x="614" y="1093" type="curve" smooth="yes"/>
      <point x="614" y="963"/>
      <point x="555" y="853"/>
    </contour>
    <contour>
      <point x="255" y="-21" type="line"/>
      <point x="408" y="-21" type="line"/>
      <point x="1328" y="1436" type="line"/>
      <point x="1185" y="1436" type="line"/>
    </contour>
    <contour>
      <point x="1177" y="86" type="curve" smooth="yes"/>
      <point x="1047" y="86"/>
      <point x="990" y="192"/>
      <point x="990" y="328" type="curve" smooth="yes"/>
      <point x="990" y="461"/>
      <point x="1048" y="567"/>
      <point x="1176" y="567" type="curve" smooth="yes"/>
      <point x="1306" y="567"/>
      <point x="1362" y="463"/>
      <point x="1362" y="327" type="curve" smooth="yes"/>
      <point x="1362" y="196"/>
      <point x="1303" y="86"/>
    </contour>
    <contour>
      <point x="1945" y="86" type="curve" smooth="yes"/>
      <point x="1815" y="86"/>
      <point x="1758" y="192"/>
      <point x="1758" y="328" type="curve" smooth="yes"/>
      <point x="1758" y="461"/>
      <point x="1816" y="567"/>
      <point x="1944" y="567" type="curve" smooth="yes"/>
      <point x="2073" y="567"/>
      <point x="2131" y="461"/>
      <point x="2131" y="327" type="curve" smooth="yes"/>
      <point x="2131" y="195"/>
      <point x="2072" y="86"/>
    </contour>
  </outline>
</glyph>
<glyph name="guilsinglleft" format="1">
  <advance width="652"/>
  <unicode hex="2039"/>
  <outline>
    <contour>
      <point x="384" y="171" type="line"/>
      <point x="115" y="541" type="line"/>
      <point x="389" y="914" type="line"/>
      <point x="548" y="914" type="line"/>
      <point x="285" y="541" type="line"/>
      <point x="540" y="171" type="line"/>
    </contour>
  </outline>
</glyph>
<glyph name="guilsinglright" format="1">
  <advance width="652"/>
  <unicode hex="203A"/>
  <outline>
    <contour>
      <point x="276" y="914" type="line"/>
      <point x="547" y="542" type="line"/>
      <point x="270" y="171" type="line"/>
      <point x="113" y="171" type="line"/>
      <point x="375" y="542" type="line"/>
      <point x="121" y="914" type="line"/>
    </contour>
  </outline>
</glyph>
<glyph name="fraction" format="1">
  <advance width="355"/>
  <unicode hex="2044"/>
  <outline>
    <contour>
      <point x="-327" y="0" type="line"/>
      <point x="556" y="1436" type="line"/>
      <point x="705" y="1436" type="line"/>
      <point x="-176" y="0" type="line"/>
    </contour>
  </outline>
</glyph>
<glyph name="trademark" format="1">
  <advance width="1839"/>
  <unicode hex="2122"/>
  <outline>
    <contour>
      <point x="814" y="686" type="line"/>
      <point x="814" y="1451" type="line"/>
      <point x="1001" y="1451" type="line"/>
      <point x="1228" y="900" type="line"/>
      <point x="1468" y="1451" type="line"/>
      <point x="1646" y="1451" type="line"/>
      <point x="1646" y="686" type="line"/>
      <point x="1524" y="686" type="line"/>
      <point x="1524" y="1281" type="line"/>
      <point x="1261" y="686" type="line"/>
      <point x="1184" y="686" type="line"/>
      <point x="935" y="1280" type="line"/>
      <point x="935" y="686" type="line"/>
    </contour>
    <contour>
      <point x="333" y="686" type="line"/>
      <point x="333" y="1350" type="line"/>
      <point x="80" y="1350" type="line"/>
      <point x="80" y="1451" type="line"/>
      <point x="707" y="1451" type="line"/>
      <point x="707" y="1350" type="line"/>
      <point x="457" y="1350" type="line"/>
      <point x="457" y="686" type="line"/>
    </contour>
  </outline>
</glyph>
<glyph name="summation" format="1">
  <advance width="1247"/>
  <unicode hex="2211"/>
  <outline>
    <contour>
      <point x="67" y="-329" type="line"/>
      <point x="67" y="-239" type="line"/>
      <point x="691" y="552" type="line"/>
      <point x="89" y="1328" type="line"/>
      <point x="89" y="1423" type="line"/>
      <point x="1158" y="1423" type="line"/>
      <point x="1158" y="1281" type="line"/>
      <point x="334" y="1281" type="line"/>
      <point x="884" y="561" type="line"/>
      <point x="304" y="-181" type="line"/>
      <point x="1203" y="-181" type="line"/>
      <point x="1203" y="-329" type="line"/>
    </contour>
  </outline>
</glyph>
<glyph name="infinity" format="1">
  <advance width="1683"/>
  <unicode hex="221E"/>
  <outline>
    <contour>
      <point x="461" y="236" type="curve" smooth="yes"/>
      <point x="499" y="236"/>
      <point x="535" y="242"/>
      <point x="570" y="254" type="curve" smooth="yes"/>
      <point x="689" y="297"/>
      <point x="773" y="391"/>
      <point x="845" y="488" type="curve"/>
      <point x="908" y="404"/>
      <point x="971" y="341"/>
      <point x="1031" y="299" type="curve" smooth="yes"/>
      <point x="1091" y="257"/>
      <point x="1158" y="236"/>
      <point x="1229" y="236" type="curve" smooth="yes"/>
      <point x="1275" y="236"/>
      <point x="1319" y="245"/>
      <point x="1361" y="262" type="curve" smooth="yes"/>
      <point x="1482" y="311"/>
      <point x="1581" y="425"/>
      <point x="1581" y="595" type="curve" smooth="yes"/>
      <point x="1581" y="646"/>
      <point x="1573" y="692"/>
      <point x="1556" y="735" type="curve" smooth="yes"/>
      <point x="1507" y="859"/>
      <point x="1396" y="944"/>
      <point x="1231" y="944" type="curve" smooth="yes"/>
      <point x="1190" y="944"/>
      <point x="1152" y="938"/>
      <point x="1117" y="926" type="curve" smooth="yes"/>
      <point x="997" y="884"/>
      <point x="918" y="789"/>
      <point x="847" y="692" type="curve"/>
      <point x="819" y="730"/>
      <point x="790" y="765"/>
      <point x="760" y="796" type="curve" smooth="yes"/>
      <point x="687" y="873"/>
      <point x="595" y="944"/>
      <point x="456" y="944" type="curve" smooth="yes"/>
      <point x="355" y="944"/>
      <point x="271" y="900"/>
      <point x="214" y="847" type="curve"/>
      <point x="156" y="795"/>
      <point x="106" y="715"/>
      <point x="106" y="612" type="curve" smooth="yes"/>
      <point x="106" y="561"/>
      <point x="114" y="512"/>
      <point x="132" y="467" type="curve" smooth="yes"/>
      <point x="182" y="339"/>
      <point x="293" y="236"/>
    </contour>
    <contour>
      <point x="464" y="355" type="curve" smooth="yes"/>
      <point x="429" y="355"/>
      <point x="398" y="362"/>
      <point x="370" y="375" type="curve" smooth="yes"/>
      <point x="297" y="410"/>
      <point x="236" y="485"/>
      <point x="236" y="592" type="curve" smooth="yes"/>
      <point x="236" y="624"/>
      <point x="241" y="654"/>
      <point x="251" y="683" type="curve" smooth="yes"/>
      <point x="280" y="766"/>
      <point x="346" y="829"/>
      <point x="454" y="829" type="curve" smooth="yes"/>
      <point x="488" y="829"/>
      <point x="519" y="822"/>
      <point x="549" y="810" type="curve" smooth="yes"/>
      <point x="651" y="768"/>
      <point x="718" y="679"/>
      <point x="778" y="589" type="curve"/>
      <point x="736" y="529"/>
      <point x="688" y="468"/>
      <point x="633" y="424" type="curve" smooth="yes"/>
      <point x="589" y="388"/>
      <point x="536" y="355"/>
    </contour>
    <contour>
      <point x="1232" y="355" type="curve" smooth="yes"/>
      <point x="1162" y="355"/>
      <point x="1114" y="380"/>
      <point x="1070" y="415" type="curve" smooth="yes"/>
      <point x="1009" y="463"/>
      <point x="962" y="523"/>
      <point x="911" y="592" type="curve"/>
      <point x="950" y="652"/>
      <point x="997" y="712"/>
      <point x="1051" y="756" type="curve" smooth="yes"/>
      <point x="1096" y="793"/>
      <point x="1154" y="829"/>
      <point x="1227" y="829" type="curve" smooth="yes"/>
      <point x="1259" y="829"/>
      <point x="1286" y="823"/>
      <point x="1313" y="812" type="curve" smooth="yes"/>
      <point x="1382" y="782"/>
      <point x="1442" y="717"/>
      <point x="1442" y="618" type="curve" smooth="yes"/>
      <point x="1442" y="466"/>
      <point x="1377" y="355"/>
    </contour>
  </outline>
</glyph>
<glyph name="integral" format="1">
  <advance width="709"/>
  <unicode hex="222B"/>
  <outline>
    <contour>
      <point x="270" y="-399" type="curve" smooth="yes"/>
      <point x="211" y="-399"/>
      <point x="182" y="-391"/>
      <point x="134" y="-378" type="curve"/>
      <point x="132" y="-249" type="line"/>
      <point x="158" y="-259"/>
      <point x="205" y="-264"/>
      <point x="242" y="-264" type="curve" smooth="yes"/>
      <point x="378" y="-264"/>
      <point x="402" y="-183"/>
      <point x="402" y="-47" type="curve" smooth="yes"/>
      <point x="402" y="1255" type="line" smooth="yes"/>
      <point x="402" y="1477"/>
      <point x="478" y="1631"/>
      <point x="700" y="1631" type="curve" smooth="yes"/>
      <point x="755" y="1631"/>
      <point x="792" y="1620"/>
      <point x="836" y="1610" type="curve"/>
      <point x="838" y="1481" type="line"/>
      <point x="812" y="1491"/>
      <point x="765" y="1496"/>
      <point x="728" y="1496" type="curve" smooth="yes"/>
      <point x="592" y="1496"/>
      <point x="566" y="1415"/>
      <point x="566" y="1279" type="curve" smooth="yes"/>
      <point x="566" y="-23" type="line" smooth="yes"/>
      <point x="566" y="-245"/>
      <point x="492" y="-399"/>
    </contour>
  </outline>
</glyph>
<glyph name="lessequal" format="1">
  <advance width="1340"/>
  <unicode hex="2264"/>
  <outline>
    <contour>
      <point x="1135" y="216" type="line"/>
      <point x="207" y="666" type="line"/>
      <point x="207" y="747" type="line"/>
      <point x="1135" y="1219" type="line"/>
      <point x="1135" y="1079" type="line"/>
      <point x="382" y="710" type="line"/>
      <point x="1135" y="357" type="line"/>
    </contour>
    <contour>
      <point x="171" y="9" type="line"/>
      <point x="171" y="131" type="line"/>
      <point x="1164" y="131" type="line"/>
      <point x="1164" y="9" type="line"/>
    </contour>
  </outline>
</glyph>
<glyph name="uniFB02" format="1">
  <advance width="1366"/>
  <unicode hex="FB02"/>
  <outline>
    <contour>
      <point x="101" y="-449" type="curve"/>
      <point x="80" y="-328" type="line"/>
      <point x="200" y="-299"/>
      <point x="263" y="-194"/>
      <point x="263" y="-34" type="curve" smooth="yes"/>
      <point x="263" y="919" type="line"/>
      <point x="61" y="919" type="line"/>
      <point x="61" y="1026" type="line"/>
      <point x="263" y="1026" type="line"/>
      <point x="263" y="1170" type="line" smooth="yes"/>
      <point x="263" y="1423"/>
      <point x="347" y="1532"/>
      <point x="541" y="1532" type="curve" smooth="yes"/>
      <point x="593" y="1532"/>
      <point x="651" y="1521"/>
      <point x="712" y="1499" type="curve"/>
      <point x="689" y="1392" type="line"/>
      <point x="653" y="1401"/>
      <point x="618" y="1409"/>
      <point x="583" y="1409" type="curve" smooth="yes"/>
      <point x="471" y="1409"/>
      <point x="422" y="1344"/>
      <point x="422" y="1193" type="curve" smooth="yes"/>
      <point x="422" y="1026" type="line"/>
      <point x="660" y="1026" type="line"/>
      <point x="660" y="919" type="line"/>
      <point x="422" y="919" type="line"/>
      <point x="422" y="-11" type="line" smooth="yes"/>
      <point x="422" y="-261"/>
      <point x="339" y="-418"/>
    </contour>
    <contour>
      <point x="1400" y="35" type="line"/>
      <point x="1131" y="-82"/>
      <point x="854" y="-9"/>
      <point x="854" y="300" type="curve" smooth="yes"/>
      <point x="854" y="1496" type="line"/>
      <point x="1012" y="1526" type="line"/>
      <point x="1018" y="292" type="line"/>
      <point x="1018" y="84"/>
      <point x="1200" y="77"/>
      <point x="1376" y="152" type="curve"/>
    </contour>
  </outline>
</glyph>
<glyph name="a.alt" format="1">
  <advance width="1203"/>
  <outline>
    <contour>
      <point x="551" y="-23" type="curve" smooth="yes"/>
      <point x="668" y="-23"/>
      <point x="819" y="13"/>
      <point x="909" y="166" type="curve"/>
      <point x="936" y="46"/>
      <point x="1054" y="-4"/>
      <point x="1141" y="-4" type="curve"/>
      <point x="1175" y="139" type="line"/>
      <point x="1123" y="139"/>
      <point x="1050" y="170"/>
      <point x="1050" y="286" type="curve" smooth="yes"/>
      <point x="1050" y="519" type="line" smooth="yes"/>
      <point x="1050" y="928"/>
      <point x="850" y="1052"/>
      <point x="610" y="1052" type="curve" smooth="yes"/>
      <point x="293" y="1052"/>
      <point x="98" y="844"/>
      <point x="98" y="494" type="curve" smooth="yes"/>
      <point x="98" y="192"/>
      <point x="290" y="-23"/>
    </contour>
    <contour>
      <point x="569" y="117" type="curve" smooth="yes"/>
      <point x="391" y="117"/>
      <point x="265" y="278"/>
      <point x="265" y="504" type="curve" smooth="yes"/>
      <point x="265" y="761"/>
      <point x="395" y="913"/>
      <point x="613" y="913" type="curve" smooth="yes"/>
      <point x="787" y="913"/>
      <point x="886" y="814"/>
      <point x="886" y="524" type="curve" smooth="yes"/>
      <point x="886" y="272"/>
      <point x="815" y="117"/>
    </contour>
  </outline>
</glyph>
<glyph name="four.alt" format="1">
  <advance width="1240"/>
  <outline>
    <contour>
      <point x="774.0" y="0.0" type="line"/>
      <point x="774.0" y="386.0" type="line"/>
      <point x="125.0" y="386.0" type="line"/>
      <point x="125.0" y="515.0" type="line"/>
      <point x="697.876" y="1456.0" type="line"/>
      <point x="945.0" y="1456.0" type="line"/>
      <point x="945.0" y="520.0" type="line"/>
      <point x="1163.0" y="520.0" type="line"/>
      <point x="1163.0" y="386.0" type="line"/>
      <point x="946.0" y="386.0" type="line"/>
      <point x="946.0" y="0.0" type="line"/>
    </contour>
    <contour>
      <point x="319.0" y="520.0" type="line"/>
      <point x="774.0" y="520.0" type="line"/>
      <point x="774.0" y="1287.0" type="line"/>
      <point x="650.897" y="1080.67" type="line"/>
    </contour>
  </outline>
</glyph>
<glyph name="k.alt" format="1">
  <advance width="1068"/>
  <outline>
    <contour>
      <point x="188" y="0" type="line"/>
      <point x="313" y="0" type="line"/>
      <point x="409" y="149"/>
      <point x="506" y="297"/>
      <point x="602" y="445" type="curve"/>
      <point x="872" y="0" type="line"/>
      <point x="1053" y="0" type="line"/>
      <point x="689" y="580" type="line"/>
      <point x="786" y="729"/>
      <point x="884" y="877"/>
      <point x="985" y="1026" type="curve"/>
      <point x="808" y="1026" type="line"/>
      <point x="351" y="308" type="line"/>
      <point x="351" y="1526" type="line"/>
      <point x="188" y="1526" type="line"/>
    </contour>
  </outline>
</glyph>
<glyph name="n.alt" format="1">
  <advance width="1251"/>
  <outline>
    <contour>
      <point x="1085" y="-24" type="curve"/>
      <point x="1121" y="102" type="line"/>
      <point x="1046" y="117"/>
      <point x="1035" y="142"/>
      <point x="1035" y="255" type="curve" smooth="yes"/>
      <point x="1035" y="270" type="line"/>
      <point x="1037" y="567" type="line"/>
      <point x="1037" y="577" type="line" smooth="yes"/>
      <point x="1037" y="867"/>
      <point x="948" y="1051"/>
      <point x="664" y="1051" type="curve" smooth="yes"/>
      <point x="503" y="1051"/>
      <point x="423" y="988"/>
      <point x="353" y="884" type="curve"/>
      <point x="331" y="1026" type="line"/>
      <point x="164" y="1026" type="line"/>
      <point x="170" y="977"/>
      <point x="190" y="784"/>
      <point x="190" y="699" type="curve" smooth="yes"/>
      <point x="190" y="0" type="line"/>
      <point x="355" y="0" type="line"/>
      <point x="355" y="652" type="line" smooth="yes"/>
      <point x="355" y="799"/>
      <point x="489" y="911"/>
      <point x="637" y="911" type="curve" smooth="yes"/>
      <point x="840" y="911"/>
      <point x="872" y="790"/>
      <point x="872" y="585" type="curve" smooth="yes"/>
      <point x="872" y="572" type="line"/>
      <point x="870" y="265" type="line"/>
      <point x="870" y="248" type="line" smooth="yes"/>
      <point x="870" y="62"/>
      <point x="897" y="-2"/>
    </contour>
  </outline>
</glyph>
<glyph name="nine.alt" format="1">
  <advance width="1176"/>
  <outline>
    <contour>
      <point x="517" y="-22" type="curve" smooth="yes"/>
      <point x="606" y="-22"/>
      <point x="685" y="-4"/>
      <point x="754" y="34" type="curve" smooth="yes"/>
      <point x="971" y="152"/>
      <point x="1080" y="416"/>
      <point x="1080" y="758" type="curve" smooth="yes"/>
      <point x="1080" y="870"/>
      <point x="1069" y="970"/>
      <point x="1046" y="1056" type="curve" smooth="yes"/>
      <point x="987" y="1282"/>
      <point x="848" y="1453"/>
      <point x="581" y="1453" type="curve" smooth="yes"/>
      <point x="509" y="1453"/>
      <point x="443" y="1441"/>
      <point x="384" y="1417" type="curve" smooth="yes"/>
      <point x="221" y="1352"/>
      <point x="98" y="1208"/>
      <point x="98" y="984" type="curve" smooth="yes"/>
      <point x="98" y="918"/>
      <point x="109" y="857"/>
      <point x="130" y="802" type="curve" smooth="yes"/>
      <point x="192" y="642"/>
      <point x="336" y="533"/>
      <point x="547" y="533" type="curve" smooth="yes"/>
      <point x="720" y="533"/>
      <point x="836" y="592"/>
      <point x="905" y="707" type="curve"/>
      <point x="905" y="683" type="line"/>
      <point x="902" y="527"/>
      <point x="865" y="386"/>
      <point x="804" y="288" type="curve" smooth="yes"/>
      <point x="747" y="196"/>
      <point x="656" y="120"/>
      <point x="520" y="120" type="curve" smooth="yes"/>
      <point x="409" y="120"/>
      <point x="318" y="157"/>
      <point x="247" y="234" type="curve"/>
      <point x="193" y="121" type="line"/>
      <point x="261" y="34"/>
      <point x="371" y="-22"/>
    </contour>
    <contour>
      <point x="572" y="673" type="curve" smooth="yes"/>
      <point x="381" y="673"/>
      <point x="274" y="792"/>
      <point x="274" y="989" type="curve" smooth="yes"/>
      <point x="274" y="1035"/>
      <point x="281" y="1078"/>
      <point x="296" y="1117" type="curve" smooth="yes"/>
      <point x="337" y="1228"/>
      <point x="429" y="1312"/>
      <point x="573" y="1312" type="curve" smooth="yes"/>
      <point x="624" y="1312"/>
      <point x="670" y="1302"/>
      <point x="709" y="1283" type="curve" smooth="yes"/>
      <point x="812" y="1232"/>
      <point x="893" y="1125"/>
      <point x="893" y="971" type="curve" smooth="yes"/>
      <point x="893" y="925"/>
      <point x="884" y="884"/>
      <point x="867" y="847" type="curve" smooth="yes"/>
      <point x="819" y="744"/>
      <point x="716" y="673"/>
    </contour>
  </outline>
</glyph>
